<svg width="225" height="73" viewBox="0 0 225 73" fill="none" xmlns="http://www.w3.org/2000/svg">
<mask id="path-1-outside-1_25_59" maskUnits="userSpaceOnUse" x="-0.199951" y="41" width="225" height="27" fill="black">
<rect fill="white" x="-0.199951" y="41" width="225" height="27"/>
<path d="M9.80005 65.3C8.36005 65.3 7.08005 65.12 5.96005 64.76C4.84005 64.4 3.79005 63.79 2.81005 62.93C2.27005 62.45 2.00005 61.92 2.00005 61.34C2.00005 60.88 2.17005 60.48 2.51005 60.14C2.85005 59.78 3.26005 59.6 3.74005 59.6C4.12005 59.6 4.46005 59.72 4.76005 59.96C5.56005 60.62 6.34005 61.1 7.10005 61.4C7.86005 61.7 8.76005 61.85 9.80005 61.85C10.92 61.85 11.88 61.6 12.68 61.1C13.5 60.6 13.91 59.98 13.91 59.24C13.91 58.34 13.51 57.64 12.71 57.14C11.91 56.62 10.64 56.23 8.90005 55.97C4.52005 55.33 2.33005 53.29 2.33005 49.85C2.33005 48.59 2.66005 47.5 3.32005 46.58C3.98005 45.64 4.88005 44.93 6.02005 44.45C7.16005 43.95 8.43005 43.7 9.83005 43.7C11.09 43.7 12.27 43.89 13.37 44.27C14.49 44.65 15.42 45.15 16.16 45.77C16.74 46.23 17.03 46.76 17.03 47.36C17.03 47.82 16.86 48.23 16.5201 48.59C16.18 48.93 15.78 49.1 15.32 49.1C15.02 49.1 14.75 49.01 14.51 48.83C13.99 48.41 13.26 48.03 12.32 47.69C11.4 47.33 10.57 47.15 9.83005 47.15C8.57005 47.15 7.59005 47.39 6.89005 47.87C6.21005 48.33 5.87005 48.94 5.87005 49.7C5.87005 50.56 6.22005 51.21 6.92005 51.65C7.64005 52.09 8.76005 52.45 10.28 52.73C12 53.03 13.37 53.42 14.39 53.9C15.43 54.36 16.21 55 16.73 55.82C17.25 56.62 17.5101 57.69 17.5101 59.03C17.5101 60.29 17.15 61.4 16.43 62.36C15.73 63.3 14.79 64.03 13.61 64.55C12.43 65.05 11.16 65.3 9.80005 65.3ZM49.1604 43.97C49.6604 43.97 50.0904 44.15 50.4504 44.51C50.8304 44.85 51.0204 45.28 51.0204 45.8V63.17C51.0204 63.69 50.8504 64.13 50.5104 64.49C50.1704 64.83 49.7204 65 49.1604 65C48.6004 65 48.1404 64.83 47.7804 64.49C47.4404 64.15 47.2704 63.71 47.2704 63.17V51.08L42.3204 58.64C42.1204 58.88 41.8904 59.08 41.6304 59.24C41.3704 59.38 41.1004 59.44 40.8204 59.42C40.5604 59.44 40.3004 59.38 40.0404 59.24C39.7804 59.08 39.5504 58.88 39.3504 58.64L34.4004 50.81V63.17C34.4004 63.71 34.2404 64.15 33.9204 64.49C33.6004 64.83 33.1804 65 32.6604 65C32.1604 65 31.7504 64.83 31.4304 64.49C31.1104 64.13 30.9504 63.69 30.9504 63.17V45.8C30.9504 45.3 31.1304 44.87 31.4904 44.51C31.8704 44.15 32.3204 43.97 32.8404 43.97C33.1404 43.97 33.4404 44.05 33.7404 44.21C34.0404 44.35 34.2704 44.54 34.4304 44.78L40.9704 54.83L47.6904 44.78C47.8504 44.54 48.0604 44.35 48.3204 44.21C48.6004 44.05 48.8804 43.97 49.1604 43.97ZM84.8505 54.5C84.8505 56.48 84.4105 58.3 83.5305 59.96C82.6505 61.6 81.4305 62.9 79.8705 63.86C78.3305 64.82 76.5905 65.3 74.6505 65.3C72.7105 65.3 70.9605 64.82 69.4005 63.86C67.8605 62.9 66.6505 61.6 65.7705 59.96C64.9105 58.3 64.4805 56.48 64.4805 54.5C64.4805 52.52 64.9105 50.71 65.7705 49.07C66.6505 47.41 67.8605 46.1 69.4005 45.14C70.9605 44.18 72.7105 43.7 74.6505 43.7C76.5905 43.7 78.3305 44.18 79.8705 45.14C81.4305 46.1 82.6505 47.41 83.5305 49.07C84.4105 50.71 84.8505 52.52 84.8505 54.5ZM80.9505 54.5C80.9505 53.16 80.6805 51.95 80.1405 50.87C79.6005 49.77 78.8505 48.9 77.8905 48.26C76.9305 47.62 75.8505 47.3 74.6505 47.3C73.4305 47.3 72.3405 47.62 71.3805 48.26C70.4405 48.88 69.7005 49.74 69.1605 50.84C68.6405 51.94 68.3805 53.16 68.3805 54.5C68.3805 55.84 68.6405 57.06 69.1605 58.16C69.7005 59.26 70.4405 60.13 71.3805 60.77C72.3405 61.39 73.4305 61.7 74.6505 61.7C75.8505 61.7 76.9305 61.38 77.8905 60.74C78.8505 60.1 79.6005 59.24 80.1405 58.16C80.6805 57.06 80.9505 55.84 80.9505 54.5ZM117.614 54.5C117.614 56.48 117.174 58.3 116.294 59.96C115.414 61.6 114.194 62.9 112.634 63.86C111.094 64.82 109.354 65.3 107.414 65.3C105.474 65.3 103.724 64.82 102.164 63.86C100.624 62.9 99.4142 61.6 98.5342 59.96C97.6742 58.3 97.2442 56.48 97.2442 54.5C97.2442 52.52 97.6742 50.71 98.5342 49.07C99.4142 47.41 100.624 46.1 102.164 45.14C103.724 44.18 105.474 43.7 107.414 43.7C109.354 43.7 111.094 44.18 112.634 45.14C114.194 46.1 115.414 47.41 116.294 49.07C117.174 50.71 117.614 52.52 117.614 54.5ZM113.714 54.5C113.714 53.16 113.444 51.95 112.904 50.87C112.364 49.77 111.614 48.9 110.654 48.26C109.694 47.62 108.614 47.3 107.414 47.3C106.194 47.3 105.104 47.62 104.144 48.26C103.204 48.88 102.464 49.74 101.924 50.84C101.404 51.94 101.144 53.16 101.144 54.5C101.144 55.84 101.404 57.06 101.924 58.16C102.464 59.26 103.204 60.13 104.144 60.77C105.104 61.39 106.194 61.7 107.414 61.7C108.614 61.7 109.694 61.38 110.654 60.74C111.614 60.1 112.364 59.24 112.904 58.16C113.444 57.06 113.714 55.84 113.714 54.5ZM144.272 44C144.812 44 145.252 44.16 145.592 44.48C145.932 44.8 146.102 45.22 146.102 45.74C146.102 46.26 145.932 46.68 145.592 47C145.252 47.3 144.812 47.45 144.272 47.45H139.562V63.17C139.562 63.69 139.372 64.13 138.992 64.49C138.612 64.83 138.142 65 137.582 65C137.022 65 136.562 64.83 136.202 64.49C135.842 64.13 135.662 63.69 135.662 63.17V47.45H130.952C130.412 47.45 129.972 47.29 129.632 46.97C129.292 46.65 129.122 46.23 129.122 45.71C129.122 45.21 129.292 44.8 129.632 44.48C129.992 44.16 130.432 44 130.952 44H144.272ZM174.461 44C175.021 44 175.471 44.17 175.811 44.51C176.151 44.85 176.321 45.29 176.321 45.83V63.17C176.321 63.69 176.141 64.13 175.781 64.49C175.421 64.83 174.961 65 174.401 65C173.901 65 173.471 64.83 173.111 64.49C172.751 64.13 172.571 63.69 172.571 63.17V56.18H163.001V63.17C163.001 63.69 162.811 64.13 162.431 64.49C162.051 64.83 161.611 65 161.111 65C160.571 65 160.121 64.83 159.761 64.49C159.421 64.13 159.251 63.69 159.251 63.17V45.83C159.251 45.31 159.431 44.88 159.791 44.54C160.151 44.18 160.611 44 161.171 44C161.671 44 162.101 44.18 162.461 44.54C162.821 44.88 163.001 45.31 163.001 45.83V52.73H172.571V45.83C172.571 45.31 172.761 44.88 173.141 44.54C173.521 44.18 173.961 44 174.461 44ZM194.564 63.17C194.564 63.69 194.374 64.13 193.994 64.49C193.614 64.83 193.174 65 192.674 65C192.134 65 191.684 64.83 191.324 64.49C190.984 64.13 190.814 63.69 190.814 63.17V45.83C190.814 45.31 190.994 44.88 191.354 44.54C191.714 44.18 192.174 44 192.734 44C193.234 44 193.664 44.18 194.024 44.54C194.384 44.88 194.564 45.31 194.564 45.83V63.17ZM220.955 61.55C221.475 61.55 221.905 61.73 222.245 62.09C222.605 62.43 222.785 62.83 222.785 63.29C222.785 63.79 222.605 64.2 222.245 64.52C221.905 64.84 221.475 65 220.955 65H210.905C210.385 65 209.945 64.83 209.585 64.49C209.245 64.13 209.075 63.69 209.075 63.17V45.83C209.075 45.31 209.245 44.88 209.585 44.54C209.945 44.18 210.385 44 210.905 44H220.955C221.475 44 221.905 44.17 222.245 44.51C222.605 44.83 222.785 45.25 222.785 45.77C222.785 46.27 222.615 46.68 222.275 47C221.935 47.3 221.495 47.45 220.955 47.45H212.825V52.55H219.605C220.125 52.55 220.555 52.72 220.895 53.06C221.255 53.38 221.435 53.8 221.435 54.32C221.435 54.82 221.265 55.23 220.925 55.55C220.585 55.85 220.145 56 219.605 56H212.825V61.55H220.955Z"/>
</mask>
<path d="M9.80005 65.3C8.36005 65.3 7.08005 65.12 5.96005 64.76C4.84005 64.4 3.79005 63.79 2.81005 62.93C2.27005 62.45 2.00005 61.92 2.00005 61.34C2.00005 60.88 2.17005 60.48 2.51005 60.14C2.85005 59.78 3.26005 59.6 3.74005 59.6C4.12005 59.6 4.46005 59.72 4.76005 59.96C5.56005 60.62 6.34005 61.1 7.10005 61.4C7.86005 61.7 8.76005 61.85 9.80005 61.85C10.92 61.85 11.88 61.6 12.68 61.1C13.5 60.6 13.91 59.98 13.91 59.24C13.91 58.34 13.51 57.64 12.71 57.14C11.91 56.62 10.64 56.23 8.90005 55.97C4.52005 55.33 2.33005 53.29 2.33005 49.85C2.33005 48.59 2.66005 47.5 3.32005 46.58C3.98005 45.64 4.88005 44.93 6.02005 44.45C7.16005 43.95 8.43005 43.7 9.83005 43.7C11.09 43.7 12.27 43.89 13.37 44.27C14.49 44.65 15.42 45.15 16.16 45.77C16.74 46.23 17.03 46.76 17.03 47.36C17.03 47.82 16.86 48.23 16.5201 48.59C16.18 48.93 15.78 49.1 15.32 49.1C15.02 49.1 14.75 49.01 14.51 48.83C13.99 48.41 13.26 48.03 12.32 47.69C11.4 47.33 10.57 47.15 9.83005 47.15C8.57005 47.15 7.59005 47.39 6.89005 47.87C6.21005 48.33 5.87005 48.94 5.87005 49.7C5.87005 50.56 6.22005 51.21 6.92005 51.65C7.64005 52.09 8.76005 52.45 10.28 52.73C12 53.03 13.37 53.42 14.39 53.9C15.43 54.36 16.21 55 16.73 55.82C17.25 56.62 17.5101 57.69 17.5101 59.03C17.5101 60.29 17.15 61.4 16.43 62.36C15.73 63.3 14.79 64.03 13.61 64.55C12.43 65.05 11.16 65.3 9.80005 65.3ZM49.1604 43.97C49.6604 43.97 50.0904 44.15 50.4504 44.51C50.8304 44.85 51.0204 45.28 51.0204 45.8V63.17C51.0204 63.69 50.8504 64.13 50.5104 64.49C50.1704 64.83 49.7204 65 49.1604 65C48.6004 65 48.1404 64.83 47.7804 64.49C47.4404 64.15 47.2704 63.71 47.2704 63.17V51.08L42.3204 58.64C42.1204 58.88 41.8904 59.08 41.6304 59.24C41.3704 59.38 41.1004 59.44 40.8204 59.42C40.5604 59.44 40.3004 59.38 40.0404 59.24C39.7804 59.08 39.5504 58.88 39.3504 58.64L34.4004 50.81V63.17C34.4004 63.71 34.2404 64.15 33.9204 64.49C33.6004 64.83 33.1804 65 32.6604 65C32.1604 65 31.7504 64.83 31.4304 64.49C31.1104 64.13 30.9504 63.69 30.9504 63.17V45.8C30.9504 45.3 31.1304 44.87 31.4904 44.51C31.8704 44.15 32.3204 43.97 32.8404 43.97C33.1404 43.97 33.4404 44.05 33.7404 44.21C34.0404 44.35 34.2704 44.54 34.4304 44.78L40.9704 54.83L47.6904 44.78C47.8504 44.54 48.0604 44.35 48.3204 44.21C48.6004 44.05 48.8804 43.97 49.1604 43.97ZM84.8505 54.5C84.8505 56.48 84.4105 58.3 83.5305 59.96C82.6505 61.6 81.4305 62.9 79.8705 63.86C78.3305 64.82 76.5905 65.3 74.6505 65.3C72.7105 65.3 70.9605 64.82 69.4005 63.86C67.8605 62.9 66.6505 61.6 65.7705 59.96C64.9105 58.3 64.4805 56.48 64.4805 54.5C64.4805 52.52 64.9105 50.71 65.7705 49.07C66.6505 47.41 67.8605 46.1 69.4005 45.14C70.9605 44.18 72.7105 43.7 74.6505 43.7C76.5905 43.7 78.3305 44.18 79.8705 45.14C81.4305 46.1 82.6505 47.41 83.5305 49.07C84.4105 50.71 84.8505 52.52 84.8505 54.5ZM80.9505 54.5C80.9505 53.16 80.6805 51.95 80.1405 50.87C79.6005 49.77 78.8505 48.9 77.8905 48.26C76.9305 47.62 75.8505 47.3 74.6505 47.3C73.4305 47.3 72.3405 47.62 71.3805 48.26C70.4405 48.88 69.7005 49.74 69.1605 50.84C68.6405 51.94 68.3805 53.16 68.3805 54.5C68.3805 55.84 68.6405 57.06 69.1605 58.16C69.7005 59.26 70.4405 60.13 71.3805 60.77C72.3405 61.39 73.4305 61.7 74.6505 61.7C75.8505 61.7 76.9305 61.38 77.8905 60.74C78.8505 60.1 79.6005 59.24 80.1405 58.16C80.6805 57.06 80.9505 55.84 80.9505 54.5ZM117.614 54.5C117.614 56.48 117.174 58.3 116.294 59.96C115.414 61.6 114.194 62.9 112.634 63.86C111.094 64.82 109.354 65.3 107.414 65.3C105.474 65.3 103.724 64.82 102.164 63.86C100.624 62.9 99.4142 61.6 98.5342 59.96C97.6742 58.3 97.2442 56.48 97.2442 54.5C97.2442 52.52 97.6742 50.71 98.5342 49.07C99.4142 47.41 100.624 46.1 102.164 45.14C103.724 44.18 105.474 43.7 107.414 43.7C109.354 43.7 111.094 44.18 112.634 45.14C114.194 46.1 115.414 47.41 116.294 49.07C117.174 50.71 117.614 52.52 117.614 54.5ZM113.714 54.5C113.714 53.16 113.444 51.95 112.904 50.87C112.364 49.77 111.614 48.9 110.654 48.26C109.694 47.62 108.614 47.3 107.414 47.3C106.194 47.3 105.104 47.62 104.144 48.26C103.204 48.88 102.464 49.74 101.924 50.84C101.404 51.94 101.144 53.16 101.144 54.5C101.144 55.84 101.404 57.06 101.924 58.16C102.464 59.26 103.204 60.13 104.144 60.77C105.104 61.39 106.194 61.7 107.414 61.7C108.614 61.7 109.694 61.38 110.654 60.74C111.614 60.1 112.364 59.24 112.904 58.16C113.444 57.06 113.714 55.84 113.714 54.5ZM144.272 44C144.812 44 145.252 44.16 145.592 44.48C145.932 44.8 146.102 45.22 146.102 45.74C146.102 46.26 145.932 46.68 145.592 47C145.252 47.3 144.812 47.45 144.272 47.45H139.562V63.17C139.562 63.69 139.372 64.13 138.992 64.49C138.612 64.83 138.142 65 137.582 65C137.022 65 136.562 64.83 136.202 64.49C135.842 64.13 135.662 63.69 135.662 63.17V47.45H130.952C130.412 47.45 129.972 47.29 129.632 46.97C129.292 46.65 129.122 46.23 129.122 45.71C129.122 45.21 129.292 44.8 129.632 44.48C129.992 44.16 130.432 44 130.952 44H144.272ZM174.461 44C175.021 44 175.471 44.17 175.811 44.51C176.151 44.85 176.321 45.29 176.321 45.83V63.17C176.321 63.69 176.141 64.13 175.781 64.49C175.421 64.83 174.961 65 174.401 65C173.901 65 173.471 64.83 173.111 64.49C172.751 64.13 172.571 63.69 172.571 63.17V56.18H163.001V63.17C163.001 63.69 162.811 64.13 162.431 64.49C162.051 64.83 161.611 65 161.111 65C160.571 65 160.121 64.83 159.761 64.49C159.421 64.13 159.251 63.69 159.251 63.17V45.83C159.251 45.31 159.431 44.88 159.791 44.54C160.151 44.18 160.611 44 161.171 44C161.671 44 162.101 44.18 162.461 44.54C162.821 44.88 163.001 45.31 163.001 45.83V52.73H172.571V45.83C172.571 45.31 172.761 44.88 173.141 44.54C173.521 44.18 173.961 44 174.461 44ZM194.564 63.17C194.564 63.69 194.374 64.13 193.994 64.49C193.614 64.83 193.174 65 192.674 65C192.134 65 191.684 64.83 191.324 64.49C190.984 64.13 190.814 63.69 190.814 63.17V45.83C190.814 45.31 190.994 44.88 191.354 44.54C191.714 44.18 192.174 44 192.734 44C193.234 44 193.664 44.18 194.024 44.54C194.384 44.88 194.564 45.31 194.564 45.83V63.17ZM220.955 61.55C221.475 61.55 221.905 61.73 222.245 62.09C222.605 62.43 222.785 62.83 222.785 63.29C222.785 63.79 222.605 64.2 222.245 64.52C221.905 64.84 221.475 65 220.955 65H210.905C210.385 65 209.945 64.83 209.585 64.49C209.245 64.13 209.075 63.69 209.075 63.17V45.83C209.075 45.31 209.245 44.88 209.585 44.54C209.945 44.18 210.385 44 210.905 44H220.955C221.475 44 221.905 44.17 222.245 44.51C222.605 44.83 222.785 45.25 222.785 45.77C222.785 46.27 222.615 46.68 222.275 47C221.935 47.3 221.495 47.45 220.955 47.45H212.825V52.55H219.605C220.125 52.55 220.555 52.72 220.895 53.06C221.255 53.38 221.435 53.8 221.435 54.32C221.435 54.82 221.265 55.23 220.925 55.55C220.585 55.85 220.145 56 219.605 56H212.825V61.55H220.955Z" fill="white"/>
<path d="M5.96005 64.76L5.34803 66.6641L5.96005 64.76ZM2.81005 62.93L1.48129 64.4248L1.49087 64.4333L2.81005 62.93ZM2.51005 60.14L3.92426 61.5542L3.94446 61.534L3.96408 61.5132L2.51005 60.14ZM4.76005 59.96L6.03281 58.4173L6.0212 58.4077L6.00944 58.3983L4.76005 59.96ZM12.68 61.1L11.6388 59.3924L11.6294 59.3982L11.6201 59.404L12.68 61.1ZM12.71 57.14L11.6201 58.8169L11.635 58.8266L11.6501 58.836L12.71 57.14ZM8.90005 55.97L9.19562 53.9919L9.18922 53.991L8.90005 55.97ZM3.32005 46.58L4.94513 47.7458L4.95104 47.7376L4.95687 47.7293L3.32005 46.58ZM6.02005 44.45L6.79616 46.2933L6.80981 46.2875L6.82337 46.2816L6.02005 44.45ZM13.37 44.27L12.717 46.1604L12.7275 46.164L13.37 44.27ZM16.16 45.77L14.8756 47.303L14.8962 47.3203L14.9173 47.337L16.16 45.77ZM16.5201 48.59L17.9343 50.0042L17.9545 49.984L17.9741 49.9632L16.5201 48.59ZM14.51 48.83L13.2534 50.3859L13.2813 50.4084L13.31 50.43L14.51 48.83ZM12.32 47.69L11.5912 49.5525L11.6154 49.5619L11.6398 49.5708L12.32 47.69ZM6.89005 47.87L8.01069 49.5266L8.02111 49.5195L6.89005 47.87ZM6.92005 51.65L5.85571 53.3433L5.86639 53.35L5.87715 53.3566L6.92005 51.65ZM10.28 52.73L9.91772 54.6969L9.92705 54.6986L9.9364 54.7003L10.28 52.73ZM14.39 53.9L13.5385 55.7096L13.5596 55.7196L13.581 55.7291L14.39 53.9ZM16.73 55.82L15.041 56.8911L15.047 56.9006L15.0532 56.91L16.73 55.82ZM16.43 62.36L14.83 61.16L14.826 61.1655L16.43 62.36ZM13.61 64.55L14.3903 66.3915L14.4035 66.3859L14.4166 66.3802L13.61 64.55ZM9.80005 63.3C8.52303 63.3 7.45575 63.14 6.57207 62.8559L5.34803 66.6641C6.70435 67.1 8.19706 67.3 9.80005 67.3V63.3ZM6.57207 62.8559C5.73967 62.5884 4.92581 62.1258 4.12923 61.4267L1.49087 64.4333C2.65429 65.4542 3.94043 66.2116 5.34803 66.6641L6.57207 62.8559ZM4.13878 61.4352C4.01628 61.3263 3.98499 61.2654 3.98463 61.2646C3.98443 61.2642 3.98571 61.2667 3.98768 61.272C3.98965 61.2773 3.99193 61.2844 3.99401 61.2929C3.99848 61.3113 4.00005 61.3282 4.00005 61.34H4.89354e-05C4.89354e-05 62.6269 0.627414 63.6658 1.48132 64.4248L4.13878 61.4352ZM4.00005 61.34C4.00005 61.3629 3.99442 61.4156 3.96821 61.4773C3.94275 61.5372 3.91632 61.5622 3.92426 61.5542L1.09584 58.7258C0.399689 59.4219 4.89354e-05 60.3234 4.89354e-05 61.34H4.00005ZM3.96408 61.5132C3.96977 61.5072 3.94145 61.5378 3.87653 61.5663C3.81023 61.5954 3.75662 61.6 3.74005 61.6V57.6C2.69046 57.6 1.76036 58.021 1.05602 58.7668L3.96408 61.5132ZM3.74005 61.6C3.71564 61.6 3.66955 61.5954 3.61441 61.576C3.55954 61.5566 3.52417 61.5325 3.51066 61.5217L6.00944 58.3983C5.35907 57.878 4.57961 57.6 3.74005 57.6V61.6ZM3.48728 61.5027C4.40759 62.262 5.36635 62.8658 6.36572 63.2603L7.83438 59.5397C7.31374 59.3342 6.71251 58.978 6.03281 58.4173L3.48728 61.5027ZM6.36572 63.2603C7.41372 63.674 8.57436 63.85 9.80005 63.85V59.85C8.94574 59.85 8.30638 59.726 7.83438 59.5397L6.36572 63.2603ZM9.80005 63.85C11.2239 63.85 12.5669 63.5292 13.74 62.796L11.6201 59.404C11.1932 59.6708 10.6162 59.85 9.80005 59.85V63.85ZM13.7213 62.8076C14.9349 62.0676 15.91 60.8851 15.91 59.24H11.91C11.91 59.24 11.91 59.2388 11.9102 59.2363C11.9104 59.2338 11.9107 59.2304 11.9114 59.2261C11.9126 59.2172 11.9149 59.2066 11.9183 59.1952C11.9258 59.1703 11.9345 59.1566 11.9343 59.1568C11.9315 59.1611 11.8685 59.2524 11.6388 59.3924L13.7213 62.8076ZM15.91 59.24C15.91 57.6111 15.1207 56.2881 13.77 55.444L11.6501 58.836C11.8177 58.9408 11.8633 59.0144 11.8736 59.0323C11.8815 59.0461 11.91 59.0967 11.91 59.24H15.91ZM13.8 55.4631C12.6344 54.7055 11.0195 54.2645 9.19562 53.992L8.60448 57.948C10.2606 58.1955 11.1857 58.5345 11.6201 58.8169L13.8 55.4631ZM9.18922 53.991C7.2189 53.7031 6.0223 53.1361 5.33576 52.4966C4.70898 51.9127 4.33005 51.1059 4.33005 49.85H0.330049C0.330049 52.0341 1.04612 53.9673 2.60934 55.4234C4.1128 56.8239 6.20119 57.5969 8.61088 57.949L9.18922 53.991ZM4.33005 49.85C4.33005 48.9589 4.55621 48.2879 4.94513 47.7458L1.69497 45.4142C0.763884 46.7121 0.330049 48.2211 0.330049 49.85H4.33005ZM4.95687 47.7293C5.38421 47.1206 5.97483 46.6391 6.79616 46.2933L5.24393 42.6067C3.78527 43.2209 2.57588 44.1594 1.68322 45.4307L4.95687 47.7293ZM6.82337 46.2816C7.68033 45.9057 8.67209 45.7 9.83005 45.7V41.7C8.18801 41.7 6.63977 41.9943 5.21673 42.6184L6.82337 46.2816ZM9.83005 45.7C10.8862 45.7 11.8438 45.8587 12.717 46.1604L14.0231 42.3796C12.6963 41.9213 11.2939 41.7 9.83005 41.7V45.7ZM12.7275 46.164C13.6641 46.4818 14.3628 46.8734 14.8756 47.303L17.4445 44.237C16.4773 43.4266 15.316 42.8182 14.0126 42.376L12.7275 46.164ZM14.9173 47.337C15.0437 47.4373 15.0667 47.4885 15.058 47.4725C15.0535 47.4642 15.0451 47.446 15.0385 47.4203C15.0318 47.3945 15.03 47.3729 15.03 47.36H19.03C19.03 46.0077 18.3379 44.9446 17.4028 44.203L14.9173 47.337ZM15.03 47.36C15.03 47.3511 15.0309 47.3344 15.0353 47.3121C15.0397 47.2896 15.0465 47.2671 15.0551 47.2465C15.0734 47.2023 15.0883 47.1932 15.066 47.2168L17.9741 49.9632C18.6353 49.2631 19.03 48.3719 19.03 47.36H15.03ZM15.1058 47.1758C15.0979 47.1837 15.1229 47.1573 15.1828 47.1318C15.2444 47.1056 15.2972 47.1 15.32 47.1V51.1C16.3367 51.1 17.2381 50.7004 17.9343 50.0042L15.1058 47.1758ZM15.32 47.1C15.3733 47.1 15.4453 47.1086 15.525 47.1351C15.6047 47.1617 15.6674 47.198 15.71 47.23L13.31 50.43C13.8962 50.8696 14.5873 51.1 15.32 51.1V47.1ZM15.7667 47.2741C15.0109 46.6636 14.0561 46.1911 13.0003 45.8092L11.6398 49.5708C12.464 49.8689 12.9692 50.1564 13.2534 50.3859L15.7667 47.2741ZM13.0488 45.8275C11.9699 45.4053 10.8876 45.15 9.83005 45.15V49.15C10.2525 49.15 10.8302 49.2547 11.5912 49.5525L13.0488 45.8275ZM9.83005 45.15C8.35113 45.15 6.91736 45.4262 5.75899 46.2205L8.02111 49.5195C8.26274 49.3538 8.78897 49.15 9.83005 49.15V45.15ZM5.76943 46.2134C4.59169 47.0101 3.87005 48.2155 3.87005 49.7H7.87005C7.87005 49.66 7.8744 49.6419 7.87491 49.6399C7.87522 49.6386 7.87415 49.6424 7.87201 49.6462C7.86495 49.6589 7.88464 49.6118 8.01067 49.5266L5.76943 46.2134ZM3.87005 49.7C3.87005 51.2143 4.54565 52.5198 5.85571 53.3433L7.98439 49.9567C7.93412 49.9251 7.90998 49.9023 7.90107 49.8931C7.8964 49.8882 7.89435 49.8855 7.89387 49.8848C7.89372 49.8846 7.89362 49.8845 7.89356 49.8844C7.89354 49.8844 7.89352 49.8843 7.89351 49.8843C7.8935 49.8843 7.8935 49.8843 7.8935 49.8843C7.8935 49.8843 7.8935 49.8843 7.8935 49.8843C7.8935 49.8843 7.8935 49.8843 7.8935 49.8843C7.8935 49.8843 7.8935 49.8843 7.8935 49.8843C7.89351 49.8843 7.89351 49.8843 7.89351 49.8843C7.89352 49.8844 7.89352 49.8843 7.89349 49.8843C7.89346 49.8842 7.89326 49.8839 7.89291 49.8831C7.89256 49.8823 7.89197 49.8809 7.89118 49.8789C7.88967 49.8748 7.88699 49.8669 7.88402 49.854C7.8781 49.8285 7.87005 49.7794 7.87005 49.7H3.87005ZM5.87715 53.3566C6.91344 53.9898 8.32302 54.4031 9.91772 54.6969L10.6424 50.7631C9.19708 50.4969 8.36666 50.1901 7.96295 49.9434L5.87715 53.3566ZM9.9364 54.7003C11.5656 54.9844 12.7427 55.3352 13.5385 55.7096L15.2416 52.0904C13.9974 51.5048 12.4345 51.0756 10.6237 50.7597L9.9364 54.7003ZM13.581 55.7291C14.3225 56.057 14.7672 56.4593 15.041 56.8911L18.4191 54.7489C17.6529 53.5407 16.5376 52.663 15.1991 52.0709L13.581 55.7291ZM15.0532 56.91C15.2932 57.2792 15.51 57.9268 15.51 59.03H19.51C19.51 57.4532 19.2069 55.9608 18.4069 54.73L15.0532 56.91ZM15.51 59.03C15.51 59.8804 15.2769 60.5643 14.83 61.16L18.0301 63.56C19.0232 62.2357 19.51 60.6996 19.51 59.03H15.51ZM14.826 61.1655C14.3527 61.8011 13.6997 62.3249 12.8035 62.7198L14.4166 66.3802C15.8804 65.7351 17.1074 64.7989 18.0341 63.5545L14.826 61.1655ZM12.8298 62.7085C11.9115 63.0976 10.9086 63.3 9.80005 63.3V67.3C11.4115 67.3 12.9486 67.0024 14.3903 66.3915L12.8298 62.7085ZM50.4504 44.51L49.0362 45.9242L49.0755 45.9635L49.1168 46.0005L50.4504 44.51ZM50.5104 64.49L51.9247 65.9042L51.9449 65.884L51.9645 65.8632L50.5104 64.49ZM47.7804 64.49L46.3662 65.9042L46.3864 65.9244L46.4072 65.944L47.7804 64.49ZM47.2704 51.08H49.2704V44.3744L45.5972 49.9844L47.2704 51.08ZM42.3204 58.64L43.8569 59.9204L43.9306 59.8319L43.9937 59.7356L42.3204 58.64ZM41.6304 59.24L42.5786 61.0009L42.6295 60.9736L42.6786 60.9433L41.6304 59.24ZM40.8204 59.42L40.9629 57.4251L40.815 57.4145L40.667 57.4259L40.8204 59.42ZM40.0404 59.24L38.9922 60.9433L39.0414 60.9736L39.0922 61.0009L40.0404 59.24ZM39.3504 58.64L37.6599 59.7087L37.73 59.8196L37.814 59.9204L39.3504 58.64ZM34.4004 50.81L36.091 49.7413L32.4004 43.9036V50.81H34.4004ZM31.4304 64.49L29.9356 65.8187L29.9545 65.84L29.974 65.8607L31.4304 64.49ZM31.4904 44.51L30.115 43.0581L30.0953 43.0767L30.0762 43.0958L31.4904 44.51ZM33.7404 44.21L32.7993 45.9747L32.8463 45.9998L32.8947 46.0224L33.7404 44.21ZM34.4304 44.78L36.1068 43.6891L36.1007 43.6798L36.0945 43.6706L34.4304 44.78ZM40.9704 54.83L39.2941 55.9209L40.9478 58.462L42.633 55.9417L40.9704 54.83ZM47.6904 44.78L49.353 45.8917L49.3545 45.8894L47.6904 44.78ZM48.3204 44.21L49.2686 45.9709L49.2908 45.959L49.3127 45.9465L48.3204 44.21ZM49.1604 45.97C49.1649 45.97 49.158 45.9704 49.1423 45.9673C49.1262 45.9642 49.1065 45.9586 49.0857 45.9499C49.0649 45.9412 49.0489 45.9318 49.0387 45.9249C49.0288 45.9181 49.0283 45.9163 49.0362 45.9242L51.8647 43.0958C51.1373 42.3684 50.2016 41.97 49.1604 41.97V45.97ZM49.1168 46.0005C49.1171 46.0007 49.1069 45.9916 49.0923 45.9718C49.0774 45.9517 49.0618 45.9259 49.0486 45.8958C49.0196 45.8303 49.0204 45.7887 49.0204 45.8H53.0204C53.0204 44.7239 52.5976 43.7474 51.784 43.0195L49.1168 46.0005ZM49.0204 45.8V63.17H53.0204V45.8H49.0204ZM49.0204 63.17C49.0204 63.1908 49.0188 63.1987 49.0192 63.1963C49.0197 63.1934 49.0218 63.1835 49.0273 63.1692C49.0329 63.1547 49.0399 63.1411 49.0471 63.1299C49.0542 63.1188 49.0585 63.1146 49.0564 63.1168L51.9645 65.8632C52.674 65.112 53.0204 64.1724 53.0204 63.17H49.0204ZM49.0962 63.0758C49.1091 63.063 49.1272 63.0476 49.1501 63.0328C49.1729 63.0181 49.1943 63.0079 49.2111 63.0016C49.2458 62.9885 49.2379 63 49.1604 63V67C50.1565 67 51.1478 66.6811 51.9247 65.9042L49.0962 63.0758ZM49.1604 63C49.1216 63 49.0983 62.9971 49.088 62.9953C49.0781 62.9937 49.0794 62.993 49.0887 62.9965C49.0984 63.0001 49.1115 63.0061 49.1255 63.0148C49.1394 63.0235 49.149 63.0315 49.1537 63.036L46.4072 65.944C47.1878 66.6813 48.162 67 49.1604 67V63ZM49.1947 63.0758C49.2039 63.085 49.2173 63.1004 49.2313 63.1217C49.2453 63.1432 49.2561 63.1649 49.2635 63.1842C49.2793 63.2249 49.2704 63.2288 49.2704 63.17H45.2704C45.2704 64.1692 45.6036 65.1416 46.3662 65.9042L49.1947 63.0758ZM49.2704 63.17V51.08H45.2704V63.17H49.2704ZM45.5972 49.9844L40.6472 57.5444L43.9937 59.7356L48.9437 52.1756L45.5972 49.9844ZM40.784 57.3596C40.7195 57.4371 40.6533 57.4929 40.5822 57.5367L42.6786 60.9433C43.1275 60.6671 43.5214 60.3229 43.8569 59.9204L40.784 57.3596ZM40.6822 57.4791C40.7032 57.4678 40.7429 57.4501 40.7991 57.4376C40.856 57.425 40.9127 57.4215 40.9629 57.4251L40.6779 61.4149C41.3564 61.4634 42.0028 61.311 42.5786 61.0009L40.6822 57.4791ZM40.667 57.4259C40.7439 57.42 40.8172 57.4267 40.8802 57.4412C40.9413 57.4553 40.9781 57.4734 40.9886 57.4791L39.0922 61.0009C39.6436 61.2978 40.283 61.4673 40.9738 61.4141L40.667 57.4259ZM41.0886 57.5367C41.0175 57.4929 40.9514 57.4371 40.8869 57.3596L37.814 59.9204C38.1495 60.3229 38.5433 60.6671 38.9922 60.9433L41.0886 57.5367ZM41.041 57.5713L36.091 49.7413L32.7099 51.8787L37.6599 59.7087L41.041 57.5713ZM32.4004 50.81V63.17H36.4004V50.81H32.4004ZM32.4004 63.17C32.4004 63.2421 32.39 63.2514 32.4009 63.2215C32.4061 63.2071 32.4146 63.1884 32.4271 63.1681C32.4397 63.1477 32.4528 63.1312 32.464 63.1193L35.3768 65.8607C36.1005 65.0918 36.4004 64.1339 36.4004 63.17H32.4004ZM32.464 63.1193C32.4773 63.1052 32.4982 63.086 32.5267 63.0663C32.5555 63.0465 32.5858 63.0304 32.6151 63.0186C32.676 62.9939 32.7009 63 32.6604 63V67C33.6626 67 34.6339 66.6501 35.3768 65.8607L32.464 63.1193ZM32.6604 63C32.6402 63 32.6773 62.9974 32.744 63.025C32.8137 63.0539 32.8633 63.0943 32.8868 63.1193L29.974 65.8607C30.7009 66.633 31.6527 67 32.6604 67V63ZM32.9253 63.1613C32.9251 63.1611 32.9295 63.1661 32.9354 63.176C32.9415 63.1861 32.9465 63.1968 32.95 63.2065C32.9535 63.2161 32.9539 63.2201 32.9532 63.2162C32.9525 63.212 32.9504 63.1973 32.9504 63.17H28.9504C28.9504 64.1375 29.2631 65.0622 29.9356 65.8187L32.9253 63.1613ZM32.9504 63.17V45.8H28.9504V63.17H32.9504ZM32.9504 45.8C32.9504 45.7955 32.9508 45.8025 32.9478 45.8182C32.9446 45.8342 32.9391 45.8539 32.9303 45.8748C32.9216 45.8956 32.9123 45.9115 32.9053 45.9217C32.8986 45.9316 32.8967 45.9321 32.9047 45.9242L30.0762 43.0958C29.3488 43.8232 28.9504 44.7588 28.9504 45.8H32.9504ZM32.8659 45.9619C32.878 45.9505 32.8826 45.948 32.8792 45.9502C32.8756 45.9526 32.8674 45.9573 32.8557 45.962C32.844 45.9666 32.8342 45.9691 32.8285 45.9702C32.8231 45.9712 32.8263 45.97 32.8404 45.97V41.97C31.8049 41.97 30.8637 42.3488 30.115 43.0581L32.8659 45.9619ZM32.8404 45.97C32.8263 45.97 32.813 45.969 32.8011 45.9675C32.7893 45.9659 32.7805 45.9639 32.7751 45.9625C32.764 45.9595 32.7717 45.96 32.7993 45.9747L34.6816 42.4453C34.131 42.1516 33.5103 41.97 32.8404 41.97V45.97ZM32.8947 46.0224C32.9077 46.0285 32.8932 46.0234 32.8642 45.9994C32.8338 45.9744 32.7983 45.9374 32.7663 45.8894L36.0945 43.6706C35.7027 43.0829 35.1682 42.6692 34.5862 42.3976L32.8947 46.0224ZM32.7541 45.8709L39.2941 55.9209L42.6468 53.7391L36.1068 43.6891L32.7541 45.8709ZM42.633 55.9417L49.353 45.8917L46.0279 43.6683L39.3079 53.7183L42.633 55.9417ZM49.3545 45.8894C49.3447 45.9042 49.3295 45.9227 49.3098 45.9406C49.2902 45.9582 49.2745 45.9678 49.2686 45.9709L47.3722 42.4491C46.831 42.7405 46.3725 43.1514 46.0263 43.6706L49.3545 45.8894ZM49.3127 45.9465C49.3279 45.9378 49.32 45.9444 49.2899 45.953C49.2584 45.962 49.2136 45.97 49.1604 45.97V41.97C48.4825 41.97 47.8639 42.1674 47.3282 42.4735L49.3127 45.9465ZM83.5305 59.96L85.2929 60.9056L85.2976 60.8968L83.5305 59.96ZM79.8705 63.86L78.8223 62.1567L78.8125 62.1628L79.8705 63.86ZM69.4005 63.86L68.3425 65.5573L68.3523 65.5633L69.4005 63.86ZM65.7705 59.96L63.9947 60.88L64.0013 60.8929L64.0082 60.9056L65.7705 59.96ZM65.7705 49.07L64.0034 48.1332L63.9993 48.1412L65.7705 49.07ZM69.4005 45.14L68.3523 43.4367L68.3425 43.4428L69.4005 45.14ZM79.8705 45.14L78.8125 46.8373L78.8223 46.8433L79.8705 45.14ZM83.5305 49.07L81.7634 50.0068L81.7682 50.0156L83.5305 49.07ZM80.1405 50.87L78.3452 51.7513L78.3484 51.7579L78.3517 51.7644L80.1405 50.87ZM71.3805 48.26L72.4817 49.9296L72.4899 49.9241L71.3805 48.26ZM69.1605 50.84L67.3652 49.9587L67.3587 49.9719L67.3524 49.9852L69.1605 50.84ZM69.1605 58.16L67.3524 59.0148L67.3587 59.0281L67.3652 59.0413L69.1605 58.16ZM71.3805 60.77L70.2549 62.4232L70.275 62.4369L70.2955 62.4501L71.3805 60.77ZM77.8905 60.74L78.9999 62.4041L77.8905 60.74ZM80.1405 58.16L81.9294 59.0544L81.9326 59.0479L81.9359 59.0413L80.1405 58.16ZM82.8505 54.5C82.8505 56.1716 82.4822 57.6674 81.7635 59.0232L85.2976 60.8968C86.3388 58.9326 86.8505 56.7884 86.8505 54.5H82.8505ZM81.7682 59.0144C81.0524 60.3484 80.0765 61.3849 78.8223 62.1567L80.9187 65.5633C82.7845 64.4151 84.2487 62.8516 85.2928 60.9056L81.7682 59.0144ZM78.8125 62.1628C77.612 62.9111 76.2434 63.3 74.6505 63.3V67.3C76.9376 67.3 79.049 66.7289 80.9285 65.5572L78.8125 62.1628ZM74.6505 63.3C73.0578 63.3 71.6746 62.9111 70.4487 62.1567L68.3523 65.5633C70.2464 66.7289 72.3632 67.3 74.6505 67.3V63.3ZM70.4585 62.1628C69.2227 61.3924 68.2521 60.3549 67.5328 59.0144L64.0082 60.9056C65.0489 62.8451 66.4983 64.4076 68.3425 65.5572L70.4585 62.1628ZM67.5463 59.04C66.8423 57.6811 66.4805 56.1793 66.4805 54.5H62.4805C62.4805 56.7807 62.9787 58.9189 63.9947 60.88L67.5463 59.04ZM66.4805 54.5C66.4805 52.8205 66.8424 51.3326 67.5418 49.9988L63.9993 48.1412C62.9787 50.0874 62.4805 52.2195 62.4805 54.5H66.4805ZM67.5376 50.0068C68.2585 48.6468 69.2286 47.6039 70.4585 46.8372L68.3425 43.4428C66.4924 44.5961 65.0425 46.1732 64.0035 48.1332L67.5376 50.0068ZM70.4487 46.8433C71.6746 46.0889 73.0578 45.7 74.6505 45.7V41.7C72.3632 41.7 70.2464 42.2711 68.3523 43.4367L70.4487 46.8433ZM74.6505 45.7C76.2434 45.7 77.612 46.0889 78.8125 46.8372L80.9285 43.4428C79.049 42.2711 76.9376 41.7 74.6505 41.7V45.7ZM78.8223 46.8433C80.0706 47.6115 81.046 48.6533 81.7635 50.0068L85.2976 48.1332C84.2551 46.1667 82.7905 44.5885 80.9187 43.4367L78.8223 46.8433ZM81.7682 50.0156C82.4822 51.3463 82.8505 52.8283 82.8505 54.5H86.8505C86.8505 52.2117 86.3388 50.0737 85.2928 48.1244L81.7682 50.0156ZM82.9505 54.5C82.9505 52.884 82.6229 51.3626 81.9294 49.9756L78.3517 51.7644C78.7382 52.5374 78.9505 53.436 78.9505 54.5H82.9505ZM81.9359 49.9887C81.2503 48.5922 80.272 47.4439 78.9999 46.5959L76.7811 49.9241C77.429 50.356 77.9507 50.9478 78.3452 51.7513L81.9359 49.9887ZM78.9999 46.5959C77.6977 45.7278 76.2286 45.3 74.6505 45.3V49.3C75.4724 49.3 76.1633 49.5122 76.7811 49.9241L78.9999 46.5959ZM74.6505 45.3C73.0595 45.3 71.579 45.724 70.2711 46.5959L72.4899 49.9241C73.1021 49.516 73.8015 49.3 74.6505 49.3V45.3ZM70.2793 46.5905C69.0159 47.4238 68.0479 48.5679 67.3652 49.9587L70.9559 51.7213C71.3531 50.9121 71.8651 50.3362 72.4817 49.9295L70.2793 46.5905ZM67.3524 49.9852C66.6937 51.3786 66.3805 52.8947 66.3805 54.5H70.3805C70.3805 53.4253 70.5873 52.5014 70.9687 51.6948L67.3524 49.9852ZM66.3805 54.5C66.3805 56.1053 66.6937 57.6214 67.3524 59.0148L70.9687 57.3052C70.5873 56.4986 70.3805 55.5747 70.3805 54.5H66.3805ZM67.3652 59.0413C68.0456 60.4274 69.0065 61.5732 70.2549 62.4232L72.5061 59.1168C71.8745 58.6868 71.3554 58.0926 70.9559 57.2787L67.3652 59.0413ZM70.2955 62.4501C71.601 63.2932 73.0728 63.7 74.6505 63.7V59.7C73.7882 59.7 73.0801 59.4868 72.4656 59.0899L70.2955 62.4501ZM74.6505 63.7C76.2286 63.7 77.6977 63.2722 78.9999 62.4041L76.7811 59.0759C76.1633 59.4878 75.4724 59.7 74.6505 59.7V63.7ZM78.9999 62.4041C80.2632 61.5619 81.2413 60.4307 81.9294 59.0544L78.3517 57.2656C77.9598 58.0493 77.4378 58.6381 76.7811 59.0759L78.9999 62.4041ZM81.9359 59.0413C82.6227 57.6421 82.9505 56.1165 82.9505 54.5H78.9505C78.9505 55.5635 78.7383 56.4779 78.3452 57.2787L81.9359 59.0413ZM116.294 59.96L118.057 60.9056L118.061 60.8968L116.294 59.96ZM112.634 63.86L111.586 62.1567L111.576 62.1628L112.634 63.86ZM102.164 63.86L101.106 65.5573L101.116 65.5633L102.164 63.86ZM98.5342 59.96L96.7584 60.88L96.765 60.8929L96.7719 60.9056L98.5342 59.96ZM98.5342 49.07L96.7671 48.1332L96.7629 48.1412L98.5342 49.07ZM102.164 45.14L101.116 43.4367L101.106 43.4428L102.164 45.14ZM112.634 45.14L111.576 46.8373L111.586 46.8433L112.634 45.14ZM116.294 49.07L114.527 50.0068L114.532 50.0156L116.294 49.07ZM112.904 50.87L111.109 51.7513L111.112 51.7579L111.115 51.7644L112.904 50.87ZM104.144 48.26L105.245 49.9296L105.254 49.9241L104.144 48.26ZM101.924 50.84L100.129 49.9587L100.122 49.9719L100.116 49.9852L101.924 50.84ZM101.924 58.16L100.116 59.0148L100.122 59.0281L100.129 59.0413L101.924 58.16ZM104.144 60.77L103.019 62.4232L103.039 62.4369L103.059 62.4501L104.144 60.77ZM110.654 60.74L111.764 62.4041L110.654 60.74ZM112.904 58.16L114.693 59.0544L114.696 59.0479L114.7 59.0413L112.904 58.16ZM115.614 54.5C115.614 56.1716 115.246 57.6674 114.527 59.0232L118.061 60.8968C119.102 58.9326 119.614 56.7884 119.614 54.5H115.614ZM114.532 59.0144C113.816 60.3484 112.84 61.3849 111.586 62.1567L113.682 65.5633C115.548 64.4151 117.012 62.8516 118.057 60.9056L114.532 59.0144ZM111.576 62.1628C110.376 62.9111 109.007 63.3 107.414 63.3V67.3C109.701 67.3 111.813 66.7289 113.692 65.5572L111.576 62.1628ZM107.414 63.3C105.821 63.3 104.438 62.9111 103.212 62.1567L101.116 65.5633C103.01 66.7289 105.127 67.3 107.414 67.3V63.3ZM103.222 62.1628C101.986 61.3924 101.016 60.3549 100.297 59.0144L96.7719 60.9056C97.8126 62.8451 99.262 64.4076 101.106 65.5572L103.222 62.1628ZM100.31 59.04C99.606 57.6811 99.2442 56.1793 99.2442 54.5H95.2442C95.2442 56.7807 95.7424 58.9189 96.7584 60.88L100.31 59.04ZM99.2442 54.5C99.2442 52.8205 99.606 51.3326 100.305 49.9988L96.7629 48.1412C95.7424 50.0874 95.2442 52.2195 95.2442 54.5H99.2442ZM100.301 50.0068C101.022 48.6468 101.992 47.6039 103.222 46.8372L101.106 43.4428C99.2561 44.5961 97.8062 46.1732 96.7671 48.1332L100.301 50.0068ZM103.212 46.8433C104.438 46.0889 105.821 45.7 107.414 45.7V41.7C105.127 41.7 103.01 42.2711 101.116 43.4367L103.212 46.8433ZM107.414 45.7C109.007 45.7 110.376 46.0889 111.576 46.8372L113.692 43.4428C111.813 42.2711 109.701 41.7 107.414 41.7V45.7ZM111.586 46.8433C112.834 47.6115 113.81 48.6533 114.527 50.0068L118.061 48.1332C117.019 46.1667 115.554 44.5885 113.682 43.4367L111.586 46.8433ZM114.532 50.0156C115.246 51.3463 115.614 52.8283 115.614 54.5H119.614C119.614 52.2117 119.102 50.0737 118.057 48.1244L114.532 50.0156ZM115.714 54.5C115.714 52.884 115.387 51.3626 114.693 49.9756L111.115 51.7644C111.502 52.5374 111.714 53.436 111.714 54.5H115.714ZM114.7 49.9887C114.014 48.5922 113.036 47.4439 111.764 46.5959L109.545 49.9241C110.193 50.356 110.714 50.9478 111.109 51.7513L114.7 49.9887ZM111.764 46.5959C110.461 45.7278 108.992 45.3 107.414 45.3V49.3C108.236 49.3 108.927 49.5122 109.545 49.9241L111.764 46.5959ZM107.414 45.3C105.823 45.3 104.343 45.724 103.035 46.5959L105.254 49.9241C105.866 49.516 106.565 49.3 107.414 49.3V45.3ZM103.043 46.5905C101.78 47.4238 100.812 48.5679 100.129 49.9587L103.72 51.7213C104.117 50.9121 104.629 50.3362 105.245 49.9295L103.043 46.5905ZM100.116 49.9852C99.4574 51.3786 99.1442 52.8947 99.1442 54.5H103.144C103.144 53.4253 103.351 52.5014 103.732 51.6948L100.116 49.9852ZM99.1442 54.5C99.1442 56.1053 99.4574 57.6214 100.116 59.0148L103.732 57.3052C103.351 56.4986 103.144 55.5747 103.144 54.5H99.1442ZM100.129 59.0413C100.809 60.4274 101.77 61.5732 103.019 62.4232L105.27 59.1168C104.638 58.6868 104.119 58.0926 103.72 57.2787L100.129 59.0413ZM103.059 62.4501C104.365 63.2932 105.836 63.7 107.414 63.7V59.7C106.552 59.7 105.844 59.4868 105.229 59.0899L103.059 62.4501ZM107.414 63.7C108.992 63.7 110.461 63.2722 111.764 62.4041L109.545 59.0759C108.927 59.4878 108.236 59.7 107.414 59.7V63.7ZM111.764 62.4041C113.027 61.5619 114.005 60.4307 114.693 59.0544L111.115 57.2656C110.723 58.0493 110.201 58.6381 109.545 59.0759L111.764 62.4041ZM114.7 59.0413C115.386 57.6421 115.714 56.1165 115.714 54.5H111.714C111.714 55.5635 111.502 56.4779 111.109 57.2787L114.7 59.0413ZM145.592 44.48L144.221 45.9364V45.9364L145.592 44.48ZM145.592 47L146.915 48.4997L146.939 48.4784L146.963 48.4564L145.592 47ZM139.562 47.45V45.45H137.562V47.45H139.562ZM138.992 64.49L140.326 65.9805L140.347 65.9615L140.367 65.9419L138.992 64.49ZM136.202 64.49L134.788 65.9042L134.808 65.9244L134.829 65.944L136.202 64.49ZM135.662 47.45H137.662V45.45H135.662V47.45ZM129.632 46.97L128.261 48.4264V48.4264L129.632 46.97ZM129.632 44.48L128.303 42.9852L128.282 43.0041L128.261 43.0236L129.632 44.48ZM144.272 46C144.344 46 144.353 46.0104 144.323 45.9996C144.309 45.9944 144.29 45.9858 144.27 45.9733C144.25 45.9608 144.233 45.9476 144.221 45.9364L146.963 43.0236C146.194 42.2999 145.236 42 144.272 42V46ZM144.221 45.9364C144.207 45.9231 144.188 45.9023 144.168 45.8737C144.148 45.8449 144.132 45.8146 144.121 45.7854C144.096 45.7244 144.102 45.6996 144.102 45.74H148.102C148.102 44.7379 147.752 43.7666 146.963 43.0236L144.221 45.9364ZM144.102 45.74C144.102 45.7804 144.096 45.7556 144.121 45.6946C144.132 45.6654 144.148 45.635 144.168 45.6063C144.188 45.5777 144.207 45.5569 144.221 45.5436L146.963 48.4564C147.752 47.7134 148.102 46.7421 148.102 45.74H144.102ZM144.269 45.5003C144.283 45.4878 144.3 45.4753 144.319 45.4645C144.337 45.4538 144.353 45.4475 144.362 45.4445C144.38 45.4382 144.357 45.45 144.272 45.45V49.45C145.201 49.45 146.142 49.1815 146.915 48.4997L144.269 45.5003ZM144.272 45.45H139.562V49.45H144.272V45.45ZM137.562 47.45V63.17H141.562V47.45H137.562ZM137.562 63.17C137.562 63.1777 137.561 63.1723 137.564 63.1567C137.568 63.1407 137.573 63.1199 137.583 63.0971C137.593 63.0744 137.604 63.0565 137.612 63.0445C137.621 63.0328 137.624 63.031 137.616 63.0381L140.367 65.9419C141.143 65.2071 141.562 64.2433 141.562 63.17H137.562ZM137.658 62.9995C137.655 63.0026 137.656 63.0013 137.661 62.9981C137.666 62.995 137.671 62.9928 137.674 62.9917C137.677 62.9908 137.673 62.9926 137.659 62.9948C137.646 62.9971 137.621 63 137.582 63V67C138.582 67 139.542 66.6818 140.326 65.9805L137.658 62.9995ZM137.582 63C137.543 63 137.52 62.9971 137.509 62.9953C137.5 62.9937 137.501 62.993 137.51 62.9965C137.52 63.0001 137.533 63.0061 137.547 63.0148C137.561 63.0235 137.57 63.0315 137.575 63.036L134.829 65.944C135.609 66.6813 136.583 67 137.582 67V63ZM137.616 63.0758C137.612 63.0713 137.616 63.0744 137.623 63.0861C137.631 63.0979 137.64 63.114 137.648 63.1327C137.656 63.1515 137.66 63.1669 137.661 63.1764C137.663 63.1855 137.662 63.1843 137.662 63.17H133.662C133.662 64.2077 134.044 65.1602 134.788 65.9042L137.616 63.0758ZM137.662 63.17V47.45H133.662V63.17H137.662ZM135.662 45.45H130.952V49.45H135.662V45.45ZM130.952 45.45C130.88 45.45 130.871 45.4396 130.9 45.4504C130.915 45.4556 130.934 45.4642 130.954 45.4767C130.974 45.4892 130.991 45.5024 131.003 45.5136L128.261 48.4264C129.03 49.1501 129.988 49.45 130.952 49.45V45.45ZM131.003 45.5136C131.017 45.5269 131.036 45.5477 131.056 45.5763C131.075 45.605 131.091 45.6354 131.103 45.6646C131.128 45.7256 131.122 45.7504 131.122 45.71H127.122C127.122 46.7121 127.472 47.6834 128.261 48.4264L131.003 45.5136ZM131.122 45.71C131.122 45.6897 131.125 45.7268 131.097 45.7935C131.068 45.8633 131.028 45.9129 131.003 45.9364L128.261 43.0236C127.489 43.7505 127.122 44.7022 127.122 45.71H131.122ZM130.961 45.9748C130.961 45.9747 130.956 45.979 130.946 45.985C130.936 45.991 130.925 45.996 130.915 45.9996C130.906 46.0031 130.902 46.0034 130.906 46.0028C130.91 46.0021 130.925 46 130.952 46V42C129.984 42 129.06 42.3127 128.303 42.9852L130.961 45.9748ZM130.952 46H144.272V42H130.952V46ZM175.781 64.49L177.154 65.944L177.175 65.9244L177.195 65.9042L175.781 64.49ZM173.111 64.49L171.697 65.9042L171.717 65.9244L171.738 65.944L173.111 64.49ZM172.571 56.18H174.571V54.18H172.571V56.18ZM163.001 56.18V54.18H161.001V56.18H163.001ZM162.431 64.49L163.765 65.9805L163.786 65.9615L163.807 65.9419L162.431 64.49ZM159.761 64.49L158.307 65.8632L158.346 65.9048L158.388 65.944L159.761 64.49ZM159.791 44.54L161.164 45.994L161.185 45.9744L161.205 45.9542L159.791 44.54ZM162.461 44.54L161.047 45.9542L161.067 45.9744L161.088 45.994L162.461 44.54ZM163.001 52.73H161.001V54.73H163.001V52.73ZM172.571 52.73V54.73H174.571V52.73H172.571ZM173.141 44.54L174.475 46.0305L174.496 46.0115L174.517 45.9919L173.141 44.54ZM174.461 46C174.539 46 174.547 46.0115 174.512 45.9984C174.495 45.9921 174.474 45.9819 174.451 45.9672C174.428 45.9524 174.41 45.937 174.397 45.9242L177.225 43.0958C176.449 42.3189 175.457 42 174.461 42V46ZM174.397 45.9242C174.388 45.915 174.374 45.8996 174.36 45.8782C174.346 45.8568 174.336 45.8351 174.328 45.8158C174.312 45.7751 174.321 45.7712 174.321 45.83H178.321C178.321 44.8308 177.988 43.8584 177.225 43.0958L174.397 45.9242ZM174.321 45.83V63.17H178.321V45.83H174.321ZM174.321 63.17C174.321 63.1843 174.32 63.1855 174.322 63.1764C174.324 63.1669 174.327 63.1515 174.335 63.1327C174.343 63.1139 174.352 63.0979 174.36 63.0861C174.368 63.0744 174.372 63.0713 174.367 63.0758L177.195 65.9042C177.939 65.1602 178.321 64.2077 178.321 63.17H174.321ZM174.408 63.036C174.413 63.0315 174.422 63.0235 174.436 63.0148C174.45 63.0061 174.463 63.0001 174.473 62.9965C174.482 62.993 174.484 62.9937 174.474 62.9953C174.463 62.9971 174.44 63 174.401 63V67C175.4 67 176.374 66.6813 177.154 65.944L174.408 63.036ZM174.401 63C174.39 63 174.39 62.9991 174.399 63.0007C174.408 63.0024 174.422 63.006 174.439 63.0126C174.456 63.0192 174.469 63.0266 174.479 63.0328C174.489 63.0389 174.49 63.0413 174.484 63.036L171.738 65.944C172.473 66.6384 173.396 67 174.401 67V63ZM174.525 63.0758C174.521 63.0713 174.525 63.0744 174.533 63.0861C174.541 63.0979 174.55 63.114 174.557 63.1327C174.565 63.1515 174.569 63.1669 174.571 63.1764C174.572 63.1855 174.571 63.1843 174.571 63.17H170.571C170.571 64.2077 170.953 65.1602 171.697 65.9042L174.525 63.0758ZM174.571 63.17V56.18H170.571V63.17H174.571ZM172.571 54.18H163.001V58.18H172.571V54.18ZM161.001 56.18V63.17H165.001V56.18H161.001ZM161.001 63.17C161.001 63.1777 161.001 63.1723 161.004 63.1567C161.007 63.1407 161.013 63.1199 161.023 63.0971C161.032 63.0744 161.043 63.0565 161.052 63.0445C161.06 63.0328 161.063 63.031 161.056 63.0381L163.807 65.9419C164.582 65.2071 165.001 64.2433 165.001 63.17H161.001ZM161.098 62.9995C161.084 63.0116 161.078 63.0155 161.079 63.0148C161.08 63.014 161.086 63.0106 161.095 63.0069C161.1 63.0052 161.104 63.0037 161.109 63.0025C161.113 63.0013 161.117 63.0005 161.119 63.0001C161.124 62.9991 161.122 63 161.111 63V67C162.114 67 163.026 66.6414 163.765 65.9805L161.098 62.9995ZM161.111 63C161.081 63 161.066 62.9977 161.062 62.997C161.058 62.9964 161.064 62.9971 161.076 63.0016C161.088 63.0061 161.101 63.0127 161.114 63.0207C161.126 63.0286 161.133 63.0348 161.134 63.036L158.388 65.944C159.154 66.6678 160.111 67 161.111 67V63ZM161.215 63.1168C161.213 63.1146 161.218 63.1188 161.225 63.1299C161.232 63.1411 161.239 63.1547 161.244 63.1692C161.25 63.1835 161.252 63.1934 161.252 63.1963C161.253 63.1987 161.251 63.1908 161.251 63.17H157.251C157.251 64.1724 157.598 65.112 158.307 65.8632L161.215 63.1168ZM161.251 63.17V45.83H157.251V63.17H161.251ZM161.251 45.83C161.251 45.8045 161.255 45.8334 161.231 45.8898C161.22 45.9159 161.207 45.94 161.192 45.9602C161.178 45.9802 161.167 45.9912 161.164 45.994L158.418 43.086C157.636 43.8245 157.251 44.7907 157.251 45.83H161.251ZM161.205 45.9542C161.203 45.9565 161.195 45.9644 161.18 45.9741C161.165 45.9839 161.149 45.9919 161.135 45.9975C161.121 46.003 161.114 46.0039 161.118 46.0033C161.121 46.0026 161.138 46 161.171 46V42C160.139 42 159.151 42.3514 158.377 43.1258L161.205 45.9542ZM161.171 46C161.176 46 161.169 46.0003 161.153 45.9973C161.137 45.9942 161.117 45.9886 161.096 45.9799C161.076 45.9712 161.06 45.9618 161.049 45.9549C161.04 45.9481 161.039 45.9463 161.047 45.9542L163.875 43.1258C163.148 42.3984 162.212 42 161.171 42V46ZM161.088 45.994C161.085 45.9912 161.074 45.9802 161.06 45.9602C161.046 45.94 161.032 45.9159 161.021 45.8898C160.998 45.8334 161.001 45.8045 161.001 45.83H165.001C165.001 44.7907 164.616 43.8245 163.834 43.086L161.088 45.994ZM161.001 45.83V52.73H165.001V45.83H161.001ZM163.001 54.73H172.571V50.73H163.001V54.73ZM174.571 52.73V45.83H170.571V52.73H174.571ZM174.571 45.83C174.571 45.8187 174.572 45.8603 174.543 45.9258C174.53 45.9559 174.514 45.9817 174.499 46.0018C174.485 46.0216 174.475 46.0307 174.475 46.0305L171.808 43.0495C170.994 43.7774 170.571 44.7539 170.571 45.83H174.571ZM174.517 45.9919C174.532 45.9774 174.539 45.9729 174.537 45.9741C174.535 45.9755 174.527 45.9805 174.513 45.9861C174.5 45.9917 174.486 45.9957 174.474 45.9981C174.462 46.0003 174.457 46 174.461 46V42C173.424 42 172.498 42.3944 171.766 43.0881L174.517 45.9919ZM193.994 64.49L195.327 65.9805L195.349 65.9615L195.369 65.9419L193.994 64.49ZM191.324 64.49L189.87 65.8632L189.909 65.9048L189.95 65.944L191.324 64.49ZM191.354 44.54L192.727 45.994L192.748 45.9744L192.768 45.9542L191.354 44.54ZM194.024 44.54L192.61 45.9542L192.63 45.9744L192.65 45.994L194.024 44.54ZM192.564 63.17C192.564 63.1777 192.563 63.1723 192.566 63.1567C192.569 63.1407 192.575 63.1199 192.585 63.0971C192.595 63.0744 192.606 63.0565 192.614 63.0445C192.623 63.0328 192.626 63.031 192.618 63.0381L195.369 65.9419C196.145 65.2071 196.564 64.2433 196.564 63.17H192.564ZM192.66 62.9995C192.647 63.0116 192.64 63.0155 192.641 63.0148C192.643 63.014 192.648 63.0106 192.658 63.0069C192.662 63.0052 192.667 63.0037 192.671 63.0025C192.676 63.0013 192.679 63.0005 192.682 63.0001C192.687 62.9991 192.685 63 192.674 63V67C193.676 67 194.589 66.6414 195.327 65.9805L192.66 62.9995ZM192.674 63C192.644 63 192.628 62.9977 192.624 62.997C192.62 62.9964 192.626 62.9971 192.638 63.0016C192.65 63.0061 192.664 63.0127 192.676 63.0207C192.689 63.0286 192.696 63.0348 192.697 63.036L189.95 65.944C190.717 66.6678 191.674 67 192.674 67V63ZM192.778 63.1168C192.776 63.1146 192.78 63.1188 192.787 63.1299C192.794 63.1411 192.801 63.1547 192.807 63.1692C192.812 63.1835 192.814 63.1934 192.815 63.1963C192.815 63.1987 192.814 63.1908 192.814 63.17H188.814C188.814 64.1724 189.16 65.112 189.87 65.8632L192.778 63.1168ZM192.814 63.17V45.83H188.814V63.17H192.814ZM192.814 45.83C192.814 45.8045 192.817 45.8334 192.794 45.8898C192.783 45.9159 192.769 45.94 192.755 45.9602C192.741 45.9802 192.73 45.9912 192.727 45.994L189.98 43.086C189.198 43.8245 188.814 44.7907 188.814 45.83H192.814ZM192.768 45.9542C192.766 45.9565 192.757 45.9644 192.742 45.9741C192.728 45.9839 192.712 45.9919 192.698 45.9975C192.684 46.003 192.677 46.0039 192.68 46.0033C192.684 46.0026 192.701 46 192.734 46V42C191.702 42 190.714 42.3514 189.94 43.1258L192.768 45.9542ZM192.734 46C192.738 46 192.731 46.0003 192.716 45.9973C192.7 45.9942 192.68 45.9886 192.659 45.9799C192.638 45.9712 192.622 45.9618 192.612 45.9549C192.602 45.9481 192.602 45.9463 192.61 45.9542L195.438 43.1258C194.711 42.3984 193.775 42 192.734 42V46ZM192.65 45.994C192.647 45.9912 192.637 45.9802 192.623 45.9602C192.608 45.94 192.595 45.9159 192.584 45.8898C192.56 45.8334 192.564 45.8045 192.564 45.83H196.564C196.564 44.7907 196.179 43.8245 195.397 43.086L192.65 45.994ZM192.564 45.83V63.17H196.564V45.83H192.564ZM222.245 62.09L220.791 63.4632L220.831 63.5048L220.872 63.544L222.245 62.09ZM222.245 64.52L220.917 63.0252L220.895 63.0441L220.875 63.0636L222.245 64.52ZM209.585 64.49L208.131 65.8632L208.171 65.9048L208.212 65.944L209.585 64.49ZM209.585 44.54L208.171 43.1258L209.585 44.54ZM222.245 44.51L220.831 45.9242L220.873 45.9658L220.917 46.0048L222.245 44.51ZM222.275 47L223.599 48.4997L223.623 48.4784L223.646 48.4564L222.275 47ZM212.825 47.45V45.45H210.825V47.45H212.825ZM212.825 52.55H210.825V54.55H212.825V52.55ZM220.895 53.06L219.481 54.4742L219.523 54.5158L219.567 54.5548L220.895 53.06ZM220.925 55.55L222.249 57.0497L222.273 57.0284L222.296 57.0064L220.925 55.55ZM212.825 56V54H210.825V56H212.825ZM212.825 61.55H210.825V63.55H212.825V61.55ZM220.955 63.55C220.981 63.55 220.952 63.5535 220.896 63.5299C220.87 63.519 220.845 63.5054 220.825 63.4912C220.805 63.4772 220.794 63.4662 220.791 63.4632L223.699 60.7168C222.961 59.9347 221.995 59.55 220.955 59.55V63.55ZM220.872 63.544C220.886 63.5575 220.857 63.5331 220.827 63.4657C220.795 63.3952 220.785 63.3289 220.785 63.29H224.785C224.785 62.2345 224.345 61.3216 223.619 60.636L220.872 63.544ZM220.785 63.29C220.785 63.2956 220.786 63.245 220.819 63.1685C220.854 63.0902 220.898 63.0419 220.917 63.0252L223.574 66.0148C224.379 65.2991 224.785 64.3365 224.785 63.29H220.785ZM220.875 63.0636C220.883 63.0558 220.897 63.0445 220.916 63.0328C220.935 63.0209 220.954 63.0118 220.97 63.0056C221.006 62.9922 221.009 63 220.955 63V67C221.922 67 222.862 66.6864 223.616 65.9764L220.875 63.0636ZM220.955 63H210.905V67H220.955V63ZM210.905 63C210.885 63 210.877 62.9983 210.879 62.9988C210.882 62.9993 210.892 63.0014 210.906 63.0069C210.921 63.0125 210.934 63.0195 210.946 63.0267C210.957 63.0337 210.961 63.038 210.959 63.036L208.212 65.944C208.963 66.6536 209.903 67 210.905 67V63ZM211.039 63.1168C211.037 63.1146 211.042 63.1188 211.049 63.1299C211.056 63.1411 211.063 63.1547 211.069 63.1692C211.074 63.1835 211.076 63.1934 211.077 63.1963C211.077 63.1987 211.075 63.1908 211.075 63.17H207.075C207.075 64.1724 207.422 65.112 208.131 65.8632L211.039 63.1168ZM211.075 63.17V45.83H207.075V63.17H211.075ZM211.075 45.83C211.075 45.7905 211.081 45.8063 211.063 45.8528C211.054 45.8745 211.043 45.8964 211.03 45.9163C211.017 45.936 211.005 45.9486 211 45.9542L208.171 43.1258C207.424 43.8733 207.075 44.8273 207.075 45.83H211.075ZM211 45.9542C211.004 45.9497 211.001 45.9536 210.989 45.9614C210.977 45.9695 210.961 45.9784 210.943 45.9861C210.924 45.9938 210.908 45.9977 210.899 45.9995C210.89 46.0012 210.891 46 210.905 46V42C209.868 42 208.915 42.3818 208.171 43.1258L211 45.9542ZM210.905 46H220.955V42H210.905V46ZM220.955 46C220.995 46 220.979 46.0058 220.933 45.9874C220.911 45.9788 220.889 45.9675 220.869 45.9543C220.849 45.9412 220.837 45.9299 220.831 45.9242L223.66 43.0958C222.912 42.3483 221.958 42 220.955 42V46ZM220.917 46.0048C220.889 45.9803 220.844 45.9277 220.812 45.8528C220.782 45.7818 220.785 45.7436 220.785 45.77H224.785C224.785 44.7299 224.398 43.7474 223.574 43.0152L220.917 46.0048ZM220.785 45.77C220.785 45.7903 220.783 45.7532 220.81 45.6865C220.839 45.6167 220.88 45.5671 220.905 45.5436L223.646 48.4564C224.418 47.7295 224.785 46.7778 224.785 45.77H220.785ZM220.952 45.5003C220.966 45.4878 220.984 45.4753 221.002 45.4645C221.021 45.4538 221.036 45.4475 221.045 45.4445C221.063 45.4382 221.041 45.45 220.955 45.45V49.45C221.885 49.45 222.826 49.1815 223.599 48.4997L220.952 45.5003ZM220.955 45.45H212.825V49.45H220.955V45.45ZM210.825 47.45V52.55H214.825V47.45H210.825ZM212.825 54.55H219.605V50.55H212.825V54.55ZM219.605 54.55C219.645 54.55 219.629 54.5558 219.583 54.5374C219.561 54.5288 219.539 54.5175 219.519 54.5043C219.499 54.4912 219.487 54.4799 219.481 54.4742L222.31 51.6458C221.562 50.8983 220.608 50.55 219.605 50.55V54.55ZM219.567 54.5548C219.539 54.5303 219.494 54.4777 219.462 54.4028C219.432 54.3318 219.435 54.2936 219.435 54.32H223.435C223.435 53.2799 223.048 52.2975 222.224 51.5652L219.567 54.5548ZM219.435 54.32C219.435 54.3403 219.433 54.3032 219.46 54.2365C219.489 54.1667 219.53 54.1171 219.555 54.0936L222.296 57.0064C223.068 56.2795 223.435 55.3278 223.435 54.32H219.435ZM219.602 54.0503C219.616 54.0378 219.634 54.0253 219.652 54.0145C219.671 54.0038 219.686 53.9975 219.695 53.9945C219.713 53.9882 219.691 54 219.605 54V58C220.535 58 221.476 57.7315 222.249 57.0497L219.602 54.0503ZM219.605 54H212.825V58H219.605V54ZM210.825 56V61.55H214.825V56H210.825ZM212.825 63.55H220.955V59.55H212.825V63.55Z" fill="#FEA3AC" mask="url(#path-1-outside-1_25_59)"/>
<path d="M41.6331 20.3584C41.3726 20.3584 41.1204 20.4072 40.8762 20.5049C40.6484 20.6025 40.4205 20.7083 40.1926 20.8223C39.981 20.9199 39.7532 21.0176 39.509 21.1152C39.2812 21.1966 39.037 21.2373 38.7766 21.2373C38.3046 21.2373 38.0686 20.9769 38.0686 20.4561V20.4072C38.0686 20.391 38.0767 20.3747 38.093 20.3584L41.7795 19.2354C41.8284 18.5192 41.8365 17.8112 41.804 17.1113C41.7877 16.3952 41.7714 15.7116 41.7551 15.0605C41.7389 14.3932 41.747 13.7666 41.7795 13.1807C41.8284 12.5947 41.926 12.0495 42.0725 11.5449C42.219 11.0404 42.4387 10.6009 42.7317 10.2266C43.0409 9.85221 43.4641 9.54297 44.0012 9.29883C44.1803 9.29883 44.3756 9.32324 44.5872 9.37207C44.815 9.4209 45.0185 9.50228 45.1975 9.61621C45.3765 9.71387 45.5312 9.85221 45.6614 10.0312C45.7916 10.194 45.8567 10.3812 45.8567 10.5928C45.1405 10.5928 44.5709 10.723 44.1477 10.9834C43.7408 11.2275 43.4316 11.5531 43.22 11.96C43.0084 12.3669 42.8782 12.847 42.8293 13.4004C42.7805 13.9375 42.7642 14.5072 42.7805 15.1094C42.8131 15.6953 42.8538 16.2894 42.9026 16.8916C42.9677 17.4938 43.0002 18.0635 43.0002 18.6006C43.5536 18.6006 44.0907 18.5436 44.6116 18.4297C45.1487 18.3158 45.6777 18.1937 46.1985 18.0635C46.7356 17.917 47.2727 17.7949 47.8098 17.6973C48.3469 17.5833 48.884 17.5264 49.4211 17.5264C49.8118 17.5264 50.0071 17.7135 50.0071 18.0879C50.0071 18.2344 49.8687 18.3646 49.592 18.4785C49.3153 18.5924 48.9573 18.6982 48.5178 18.7959C48.0784 18.8773 47.5901 18.9668 47.053 19.0645C46.5159 19.1458 45.9788 19.2435 45.4417 19.3574C44.9208 19.4551 44.4325 19.5609 43.9768 19.6748C43.5211 19.7887 43.163 19.9271 42.9026 20.0898C42.8212 20.7083 42.8131 21.3268 42.8782 21.9453C42.9596 22.5475 43.0572 23.1497 43.1711 23.752C43.3014 24.3379 43.4234 24.932 43.5374 25.5342C43.6676 26.1201 43.7408 26.7061 43.7571 27.292C43.7571 27.4385 43.7245 27.6012 43.6594 27.7803C43.6106 27.943 43.5048 28.0244 43.342 28.0244C43.2118 28.0244 43.106 27.9756 43.0247 27.8779C42.9433 27.7803 42.87 27.6745 42.8049 27.5605C42.7561 27.4303 42.7154 27.3083 42.6829 27.1943C42.6503 27.0641 42.6259 26.9583 42.6096 26.877C42.4957 26.2747 42.3899 25.7132 42.2922 25.1924C42.1946 24.6553 42.1051 24.1344 42.0237 23.6299C41.9586 23.109 41.9016 22.5882 41.8528 22.0674C41.8202 21.5465 41.7958 20.9769 41.7795 20.3584H41.6331ZM48.884 18.6738L50.3245 24.6064H50.6174C50.6663 24.0856 50.7558 23.5322 50.886 22.9463C51.0325 22.3604 51.2278 21.7826 51.4719 21.2129C51.7161 20.627 52.0009 20.0654 52.3264 19.5283C52.6682 18.9912 53.0507 18.5192 53.4739 18.1123C53.8971 17.7054 54.3691 17.3799 54.8899 17.1357C55.427 16.8916 56.0129 16.7695 56.6477 16.7695C56.6477 17.1602 56.4849 17.502 56.1594 17.7949C55.8502 18.0879 55.4758 18.3727 55.0364 18.6494C54.5969 18.9261 54.1412 19.2191 53.6692 19.5283C53.2135 19.8376 52.8554 20.2119 52.595 20.6514C52.3183 21.0908 52.0904 21.6035 51.9114 22.1895C51.7486 22.7591 51.6103 23.3532 51.4963 23.9717C51.3987 24.5739 51.3254 25.1842 51.2766 25.8027C51.2278 26.4049 51.1871 26.9502 51.1545 27.4385C51.0569 27.585 50.9511 27.7233 50.8372 27.8535C50.7395 27.9674 50.6093 28.0244 50.4465 28.0244C50.3814 28.0244 50.3 28.0081 50.2024 27.9756C50.1047 27.9268 50.0396 27.8372 50.0071 27.707L48.2493 18.6738H48.884ZM58.2346 22.3359C57.8603 22.5638 57.4778 22.7428 57.0872 22.873C56.6965 22.987 56.3792 22.9056 56.135 22.6289C56.135 22.3197 56.2408 22.1162 56.4524 22.0186C56.664 21.9046 56.9 21.8151 57.1604 21.75C57.4371 21.6849 57.7056 21.6035 57.9661 21.5059C58.2428 21.4082 58.4299 21.2129 58.5276 20.9199C58.6252 20.5944 58.7148 20.2038 58.7961 19.748C58.8775 19.2923 58.9915 18.8529 59.1379 18.4297C59.2844 18.0065 59.496 17.6566 59.7727 17.3799C60.0494 17.0869 60.4319 16.9404 60.9202 16.9404C61.1969 16.9404 61.5387 17.0381 61.9456 17.2334C62.3687 17.4124 62.7675 17.6322 63.1418 17.8926C63.5162 18.153 63.8336 18.4297 64.094 18.7227C64.3544 19.0156 64.4846 19.2842 64.4846 19.5283C64.4846 19.6423 64.4683 19.748 64.4358 19.8457C64.4195 19.9434 64.3381 20.0247 64.1917 20.0898L59.3821 21.75L59.3577 21.8721C59.3577 21.9372 59.3495 22.0267 59.3333 22.1406V22.4336C59.3333 22.5475 59.3333 22.6289 59.3333 22.6777C59.3333 23.0033 59.3577 23.4102 59.4065 23.8984C59.4553 24.3704 59.553 24.8343 59.6995 25.29C59.8622 25.7295 60.0819 26.112 60.3586 26.4375C60.6353 26.763 61.0097 26.9258 61.4817 26.9258C61.6607 26.9258 61.8072 26.8932 61.9211 26.8281C62.0514 26.7467 62.1734 26.6654 62.2874 26.584C62.4176 26.4863 62.5396 26.4049 62.6536 26.3398C62.7838 26.2585 62.9303 26.2178 63.093 26.2178C63.093 26.4619 63.0361 26.6979 62.9221 26.9258C62.8245 27.1374 62.6861 27.3245 62.5071 27.4873C62.328 27.6501 62.1246 27.7803 61.8967 27.8779C61.6689 27.9756 61.441 28.0244 61.2131 28.0244C60.5946 28.0244 60.0982 27.8128 59.7239 27.3896C59.3495 26.9502 59.0566 26.4294 58.845 25.8271C58.6497 25.2087 58.5113 24.582 58.4299 23.9473C58.3486 23.2962 58.2834 22.7591 58.2346 22.3359ZM61.2131 18.0146C60.9202 18.0146 60.6679 18.096 60.4563 18.2588C60.261 18.4215 60.0982 18.625 59.968 18.8691C59.8378 19.1133 59.7402 19.3818 59.675 19.6748C59.6262 19.9515 59.6018 20.2038 59.6018 20.4316C59.8622 20.4316 60.1471 20.4154 60.4563 20.3828C60.7818 20.3503 61.0992 20.2852 61.4084 20.1875C61.7177 20.0898 61.9944 19.9678 62.2385 19.8213C62.4989 19.6585 62.678 19.4632 62.7756 19.2354C62.5315 18.8447 62.3036 18.5436 62.092 18.332C61.8805 18.1204 61.5875 18.0146 61.2131 18.0146ZM66.7307 27.1699C66.7307 26.9746 66.747 26.8118 66.7795 26.6816C66.8121 26.5352 66.8609 26.4375 66.926 26.3887C67.0074 26.3236 67.0969 26.3236 67.1946 26.3887C67.3085 26.4375 67.4469 26.5677 67.6096 26.7793C67.9026 26.7793 68.2444 26.763 68.635 26.7305C69.0256 26.6979 69.4325 26.641 69.8557 26.5596C70.2789 26.4782 70.6939 26.3724 71.1008 26.2422C71.524 26.112 71.8902 25.9411 72.1995 25.7295C72.525 25.5016 72.7854 25.2412 72.9807 24.9482C73.176 24.639 73.2737 24.2809 73.2737 23.874C73.2737 23.4671 73.0865 23.166 72.7122 22.9707C72.3378 22.7754 71.8577 22.6289 71.2717 22.5312C70.7021 22.4173 70.0836 22.3115 69.4163 22.2139C68.7652 22.0999 68.1549 21.9372 67.5852 21.7256C67.0155 21.4977 66.5354 21.1803 66.1448 20.7734C65.7704 20.3503 65.5833 19.7643 65.5833 19.0156C65.5833 18.4948 65.6728 18.0553 65.8518 17.6973C66.0308 17.3392 66.3319 17.0055 66.7551 16.6963C66.9342 16.5498 67.2515 16.3219 67.7073 16.0127C68.163 15.6872 68.6431 15.3454 69.1477 14.9873C69.6685 14.613 70.1568 14.2712 70.6125 13.9619C71.0683 13.6364 71.3857 13.4085 71.5647 13.2783C71.5972 13.2783 71.6379 13.2783 71.6868 13.2783C71.7519 13.262 71.8007 13.2539 71.8333 13.2539C72.2402 13.2539 72.4436 13.4492 72.4436 13.8398C72.4436 14.0189 72.2971 14.2142 72.0042 14.4258C71.7112 14.6211 71.3368 14.8408 70.8811 15.085C70.4417 15.3291 69.9615 15.5895 69.4407 15.8662C68.9361 16.1429 68.456 16.4521 68.0002 16.7939C67.5608 17.1195 67.1946 17.4775 66.9016 17.8682C66.6086 18.2425 66.4622 18.6494 66.4622 19.0889C66.4622 19.5609 66.5761 19.9027 66.804 20.1143C67.0481 20.3258 67.4062 20.5049 67.8782 20.6514C68.0735 20.7002 68.4071 20.7979 68.8792 20.9443C69.3674 21.0745 69.8801 21.221 70.4172 21.3838C70.9706 21.5303 71.4833 21.6686 71.9553 21.7988C72.4436 21.929 72.7854 22.0186 72.9807 22.0674C73.4039 22.2952 73.7457 22.5475 74.0061 22.8242C74.2828 23.0846 74.4211 23.4508 74.4211 23.9229C74.4211 24.3786 74.2991 24.7936 74.0549 25.168C73.8271 25.5423 73.5178 25.8841 73.1272 26.1934C72.7528 26.4863 72.3134 26.7549 71.8088 26.999C71.3206 27.2269 70.8241 27.4222 70.3196 27.585C69.815 27.7314 69.3186 27.8454 68.8303 27.9268C68.3583 27.9919 67.9351 28.0244 67.5608 28.0244C67.2027 28.0244 66.9749 27.9756 66.8772 27.8779C66.7795 27.764 66.7307 27.528 66.7307 27.1699ZM75.3245 9.20117L76.3743 9.03027L77.4973 22.3359C77.6112 21.7826 77.7821 21.1803 78.01 20.5293C78.2379 19.8783 78.539 19.2842 78.9133 18.7471C79.304 18.21 79.776 17.7949 80.3293 17.502C80.899 17.1927 81.5582 17.1113 82.3069 17.2578C82.8277 17.3392 83.2753 17.5426 83.6497 17.8682C84.0403 18.1774 84.3739 18.5599 84.6506 19.0156C84.9273 19.4714 85.1471 19.9759 85.3098 20.5293C85.4889 21.0664 85.6272 21.6198 85.7249 22.1895C85.8225 22.7428 85.8876 23.2799 85.9202 23.8008C85.969 24.3216 85.9934 24.7773 85.9934 25.168C85.9934 25.5098 85.9609 25.7458 85.8958 25.876C85.8469 25.9899 85.7004 26.0469 85.4563 26.0469C85.3424 26.0469 85.2284 26.0387 85.1145 26.0225C85.0006 25.9899 84.9192 25.8923 84.8704 25.7295C84.9029 25.4202 84.9192 25.0133 84.9192 24.5088C84.9192 24.0042 84.8866 23.4834 84.8215 22.9463C84.7727 22.4092 84.6832 21.8721 84.553 21.335C84.4228 20.7816 84.2356 20.2852 83.9915 19.8457C83.7636 19.4062 83.4625 19.0563 83.0881 18.7959C82.7138 18.5192 82.2662 18.3809 81.7454 18.3809C81.2083 18.3809 80.7362 18.5029 80.3293 18.7471C79.9387 18.9749 79.6051 19.276 79.3284 19.6504C79.068 20.0247 78.8564 20.4479 78.6936 20.9199C78.5308 21.3757 78.4169 21.8477 78.3518 22.3359C78.3518 22.4661 78.3355 22.6777 78.303 22.9707C78.2867 23.2474 78.2623 23.5648 78.2297 23.9229C78.1972 24.2646 78.1728 24.639 78.1565 25.0459C78.1402 25.4365 78.1239 25.8109 78.1077 26.1689C78.0914 26.5107 78.0751 26.82 78.0588 27.0967C78.0588 27.3734 78.0588 27.5768 78.0588 27.707C78.01 27.8698 77.9368 27.9674 77.8391 28C77.7415 28.0163 77.6275 28.0244 77.4973 28.0244C77.481 28.0244 77.4322 28.0163 77.3508 28C77.2857 28 77.2369 28 77.2043 28L75.3245 9.20117ZM100.642 27.1455C100.74 26.7386 100.853 26.2829 100.984 25.7783C101.13 25.2575 101.26 24.7122 101.374 24.1426C101.488 23.5729 101.586 23.0033 101.667 22.4336C101.765 21.8477 101.814 21.2943 101.814 20.7734C101.814 20.3991 101.716 20.0898 101.521 19.8457C101.325 19.6016 101.073 19.3818 100.764 19.1865C100.471 18.9912 100.145 18.8122 99.7874 18.6494C99.4456 18.4704 99.12 18.2913 98.8108 18.1123C98.5178 17.917 98.2737 17.7135 98.0784 17.502C97.8831 17.2741 97.7854 17.0055 97.7854 16.6963C97.7854 16.6637 97.7854 16.6149 97.7854 16.5498C97.8017 16.4847 97.8098 16.4359 97.8098 16.4033C98.0865 16.1104 98.4283 15.736 98.8352 15.2803C99.2584 14.8245 99.706 14.3851 100.178 13.9619C100.666 13.5387 101.171 13.1807 101.692 12.8877C102.212 12.5785 102.717 12.4238 103.205 12.4238C103.238 12.4238 103.295 12.4645 103.376 12.5459C103.458 12.6273 103.498 12.6924 103.498 12.7412V13.9863C103.498 14.8815 103.441 15.7686 103.327 16.6475C103.23 17.5264 103.181 18.4134 103.181 19.3086V19.7725C103.181 19.9678 103.189 20.0736 103.205 20.0898L105.476 22.3359C105.476 22.3522 105.5 22.3685 105.549 22.3848C105.614 22.3848 105.663 22.3848 105.696 22.3848C105.907 22.3848 106.094 22.3359 106.257 22.2383C106.42 22.1406 106.574 22.0348 106.721 21.9209C106.884 21.807 107.038 21.7012 107.185 21.6035C107.348 21.5059 107.527 21.457 107.722 21.457C108.129 21.457 108.332 21.6605 108.332 22.0674C108.332 22.2952 108.259 22.458 108.113 22.5557C107.982 22.6533 107.82 22.7428 107.624 22.8242C107.445 22.9056 107.25 22.9951 107.038 23.0928C106.843 23.1742 106.697 23.3044 106.599 23.4834L108.576 25.4609C108.609 25.4772 108.585 25.5586 108.503 25.7051C108.438 25.8516 108.365 25.9574 108.283 26.0225C108.283 26.0387 108.235 26.0469 108.137 26.0469H108.039C108.023 26.0469 108.015 26.0387 108.015 26.0225C107.934 25.9574 107.803 25.8434 107.624 25.6807C107.445 25.5179 107.25 25.347 107.038 25.168C106.827 24.9727 106.623 24.7936 106.428 24.6309C106.249 24.4681 106.119 24.3623 106.037 24.3135C106.005 24.2809 105.915 24.2321 105.769 24.167C105.622 24.1019 105.525 24.0612 105.476 24.0449C105.329 24.1426 105.134 24.3135 104.89 24.5576C104.646 24.8018 104.377 25.0703 104.084 25.3633C103.808 25.6562 103.515 25.9655 103.205 26.291C102.912 26.6003 102.628 26.8851 102.351 27.1455C102.074 27.3896 101.822 27.6012 101.594 27.7803C101.366 27.943 101.187 28.0244 101.057 28.0244H100.984C100.967 28.0244 100.951 28.0163 100.935 28C100.919 27.9674 100.894 27.9105 100.862 27.8291C100.829 27.7477 100.796 27.6663 100.764 27.585C100.731 27.5036 100.699 27.4222 100.666 27.3408C100.65 27.2594 100.642 27.1943 100.642 27.1455ZM99.4944 16.6963C99.885 17.1195 100.292 17.5182 100.715 17.8926C101.155 18.2669 101.61 18.6087 102.082 18.918C102.099 18.7715 102.131 18.5029 102.18 18.1123C102.229 17.7054 102.278 17.2741 102.326 16.8184C102.392 16.3626 102.448 15.9395 102.497 15.5488C102.562 15.1419 102.611 14.8652 102.644 14.7188V14.5479C102.644 14.3851 102.611 14.2305 102.546 14.084C102.497 13.9212 102.392 13.8398 102.229 13.8398C101.968 13.8398 101.675 13.9456 101.35 14.1572C101.041 14.3525 100.748 14.5967 100.471 14.8896C100.211 15.1826 99.9827 15.4919 99.7874 15.8174C99.592 16.1429 99.4944 16.4359 99.4944 16.6963ZM102.912 21.2129C102.684 21.4733 102.514 21.7744 102.4 22.1162C102.286 22.458 102.204 22.8079 102.156 23.166C102.107 23.5241 102.074 23.8903 102.058 24.2646C102.058 24.639 102.058 24.9889 102.058 25.3145C102.058 25.347 102.058 25.4202 102.058 25.5342C102.074 25.6481 102.082 25.7132 102.082 25.7295L104.89 23.1904L102.912 21.2129ZM120.783 18.918C120.783 18.8203 120.783 18.7064 120.783 18.5762C120.8 18.446 120.816 18.3239 120.832 18.21C120.865 18.0798 120.922 17.974 121.003 17.8926C121.085 17.8112 121.198 17.7705 121.345 17.7705C121.378 17.7705 121.426 17.7786 121.491 17.7949C121.573 17.7949 121.63 17.7949 121.662 17.7949C121.679 18.9505 121.736 20.1387 121.833 21.3594C121.947 22.5801 122.167 23.7601 122.492 24.8994C122.509 24.7204 122.549 24.4193 122.615 23.9961C122.696 23.5566 122.777 23.1009 122.859 22.6289C122.956 22.1406 123.046 21.6849 123.127 21.2617C123.225 20.8385 123.29 20.5374 123.323 20.3584C123.436 20.0166 123.591 19.6667 123.786 19.3086C123.982 18.9342 124.218 18.5924 124.494 18.2832C124.787 17.974 125.105 17.7217 125.447 17.5264C125.805 17.3311 126.179 17.2334 126.57 17.2334C127.221 17.2334 127.798 17.3799 128.303 17.6729C128.808 17.9658 129.255 18.3564 129.646 18.8447C130.053 19.3167 130.394 19.862 130.671 20.4805C130.948 21.0827 131.176 21.7012 131.355 22.3359C131.534 22.9707 131.664 23.5811 131.745 24.167C131.827 24.7529 131.867 25.2738 131.867 25.7295V26.0225C131.867 26.1201 131.851 26.2178 131.819 26.3154C131.802 26.3968 131.762 26.4701 131.697 26.5352C131.648 26.584 131.55 26.6084 131.404 26.6084C131.241 26.6084 131.102 26.5107 130.989 26.3154C130.972 25.9085 130.923 25.4365 130.842 24.8994C130.777 24.3623 130.679 23.8008 130.549 23.2148C130.435 22.6126 130.272 22.0267 130.061 21.457C129.865 20.8711 129.613 20.3503 129.304 19.8945C129.011 19.4388 128.661 19.0726 128.254 18.7959C127.847 18.5029 127.359 18.3564 126.789 18.3564C126.334 18.3564 125.935 18.4378 125.593 18.6006C125.267 18.7633 124.991 18.9912 124.763 19.2842C124.535 19.5609 124.348 19.8945 124.201 20.2852C124.071 20.6595 123.974 21.0664 123.908 21.5059C123.86 21.7337 123.795 22.1406 123.713 22.7266C123.632 23.3125 123.542 23.9391 123.445 24.6064C123.347 25.2738 123.257 25.9004 123.176 26.4863C123.111 27.0723 123.07 27.4792 123.054 27.707C123.005 27.8698 122.916 27.9674 122.785 28C122.671 28.0326 122.549 28.0488 122.419 28.0488C122.403 28.0488 122.362 28.0407 122.297 28.0244C122.232 28.0244 122.199 28.0163 122.199 28L120.808 19.5283C120.808 19.4958 120.8 19.4062 120.783 19.2598C120.783 19.1133 120.783 18.9993 120.783 18.918ZM132.917 25.4609C132.917 24.9889 132.966 24.403 133.064 23.7031C133.178 23.0033 133.332 22.279 133.528 21.5303C133.739 20.7653 134 20.0003 134.309 19.2354C134.634 18.4704 135.001 17.7868 135.407 17.1846C135.814 16.5661 136.278 16.0697 136.799 15.6953C137.32 15.321 137.89 15.1338 138.508 15.1338C138.508 15.3617 138.41 15.5895 138.215 15.8174C138.036 16.029 137.824 16.2406 137.58 16.4521C137.352 16.6475 137.116 16.8428 136.872 17.0381C136.628 17.2171 136.457 17.388 136.36 17.5508C135.969 18.0553 135.619 18.6169 135.31 19.2354C135.001 19.8376 134.732 20.4642 134.504 21.1152C134.276 21.75 134.097 22.4092 133.967 23.0928C133.837 23.7601 133.772 24.4111 133.772 25.0459C133.772 25.1436 133.788 25.2982 133.821 25.5098C133.853 25.7051 133.894 25.9085 133.943 26.1201C134.008 26.3317 134.089 26.5189 134.187 26.6816C134.284 26.8281 134.39 26.9014 134.504 26.9014H134.577C134.594 26.9014 134.61 26.8932 134.626 26.877C135.066 26.3887 135.432 25.8597 135.725 25.29C136.018 24.7204 136.27 24.1344 136.482 23.5322C136.693 22.9137 136.872 22.2871 137.019 21.6523C137.165 21.0176 137.312 20.391 137.458 19.7725C137.507 19.5934 137.523 19.3249 137.507 18.9668C137.507 18.6087 137.523 18.2588 137.556 17.917C137.605 17.5752 137.694 17.2822 137.824 17.0381C137.955 16.7777 138.191 16.6475 138.532 16.6475C138.598 16.6475 138.671 16.6556 138.752 16.6719C138.85 16.6719 138.899 16.68 138.899 16.6963C139.501 17.9495 140.014 19.0156 140.437 19.8945C140.86 20.7572 141.218 21.4733 141.511 22.043C141.804 22.6126 142.04 23.0602 142.219 23.3857C142.398 23.7113 142.528 23.9635 142.61 24.1426C142.707 24.3053 142.772 24.4193 142.805 24.4844C142.837 24.5332 142.854 24.5739 142.854 24.6064C142.87 24.6715 142.886 24.7936 142.903 24.9727C142.919 25.1354 142.927 25.3145 142.927 25.5098C142.943 25.6888 142.951 25.8678 142.951 26.0469C142.968 26.2096 142.976 26.3154 142.976 26.3643C142.813 26.3643 142.634 26.3561 142.439 26.3398C142.243 26.3236 142.105 26.2178 142.024 26.0225L138.899 19.5283L138.63 19.2354C138.581 19.4144 138.484 19.7318 138.337 20.1875C138.207 20.6432 138.06 21.1315 137.898 21.6523C137.751 22.1569 137.613 22.637 137.483 23.0928C137.352 23.5485 137.263 23.8659 137.214 24.0449C137.116 24.2891 136.986 24.6309 136.823 25.0703C136.677 25.5098 136.49 25.9492 136.262 26.3887C136.034 26.8281 135.774 27.2106 135.481 27.5361C135.188 27.8617 134.862 28.0244 134.504 28.0244C134.211 28.0244 133.967 27.9349 133.772 27.7559C133.576 27.5605 133.414 27.3245 133.283 27.0479C133.153 26.7712 133.056 26.4863 132.99 26.1934C132.942 25.9004 132.917 25.6562 132.917 25.4609ZM147.737 20.3584C147.378 20.3584 147.02 20.4072 146.662 20.5049C146.304 20.6025 145.946 20.7083 145.588 20.8223C145.246 20.9199 144.896 21.0176 144.538 21.1152C144.197 21.1966 143.838 21.2373 143.464 21.2373C143.253 21.2373 143.082 21.1966 142.951 21.1152C142.821 21.0339 142.756 20.8711 142.756 20.627C142.756 20.4316 142.805 20.3014 142.903 20.2363C143.017 20.1549 143.147 20.1143 143.293 20.1143C143.456 20.098 143.619 20.098 143.781 20.1143C143.961 20.1305 144.099 20.1224 144.197 20.0898C144.327 20.0573 144.563 20.0003 144.905 19.9189C145.263 19.8376 145.637 19.7562 146.028 19.6748C146.418 19.5934 146.784 19.512 147.126 19.4307C147.484 19.3493 147.728 19.2842 147.859 19.2354C147.859 19.1865 147.859 19.1051 147.859 18.9912C147.875 18.861 147.883 18.7308 147.883 18.6006C147.899 18.4541 147.907 18.3239 147.907 18.21V17.9414C147.907 17.4531 147.875 16.9811 147.81 16.5254C147.745 16.0534 147.671 15.5814 147.59 15.1094C147.525 14.6374 147.46 14.1654 147.395 13.6934C147.33 13.2214 147.297 12.7493 147.297 12.2773C147.297 12.1146 147.313 11.96 147.346 11.8135C147.395 11.6507 147.525 11.5693 147.737 11.5693C147.818 11.5693 147.899 11.5938 147.981 11.6426C148.078 11.6751 148.135 11.7484 148.152 11.8623L149.006 18.918C149.022 18.9342 149.039 18.9424 149.055 18.9424H149.128C149.291 18.9424 149.543 18.9017 149.885 18.8203C150.227 18.7389 150.609 18.6413 151.032 18.5273C151.456 18.4134 151.903 18.2913 152.375 18.1611C152.864 18.0309 153.327 17.917 153.767 17.8193C154.206 17.7054 154.605 17.624 154.963 17.5752C155.321 17.5101 155.598 17.502 155.793 17.5508C155.858 17.5671 155.964 17.6484 156.111 17.7949C156.257 17.9251 156.347 18.0228 156.379 18.0879C156.412 18.2507 156.273 18.4134 155.964 18.5762C155.655 18.7227 155.248 18.8691 154.743 19.0156C154.255 19.1458 153.71 19.2679 153.108 19.3818C152.505 19.4958 151.928 19.6016 151.374 19.6992C150.837 19.7806 150.373 19.862 149.983 19.9434C149.592 20.0085 149.356 20.0573 149.275 20.0898V20.5781C149.275 20.7897 149.267 21.0257 149.25 21.2861C149.25 21.5303 149.25 21.7663 149.25 21.9941V22.4824C149.25 23.3125 149.307 24.1263 149.421 24.9238C149.535 25.7051 149.592 26.4945 149.592 27.292C149.592 27.4059 149.559 27.5036 149.494 27.585C149.429 27.6501 149.348 27.7152 149.25 27.7803C149.153 27.8291 149.055 27.8779 148.957 27.9268C148.86 27.9593 148.786 27.9837 148.738 28C148.607 27.3001 148.51 26.6654 148.445 26.0957C148.396 25.5098 148.355 24.932 148.323 24.3623C148.306 23.7926 148.282 23.1904 148.249 22.5557C148.233 21.9046 148.2 21.1722 148.152 20.3584H147.737ZM157.575 28C157.266 28.1139 156.981 28.0895 156.721 27.9268C156.477 27.7477 156.257 27.4873 156.062 27.1455C155.866 26.7874 155.696 26.3887 155.549 25.9492C155.403 25.4935 155.289 25.0459 155.207 24.6064C155.126 24.167 155.069 23.7682 155.036 23.4102C155.02 23.0521 155.028 22.7917 155.061 22.6289C155.061 22.4661 155.069 22.2139 155.085 21.8721C155.101 21.5303 155.118 21.1478 155.134 20.7246C155.15 20.2852 155.167 19.8376 155.183 19.3818C155.215 18.9098 155.24 18.4541 155.256 18.0146C155.272 17.5752 155.289 17.1927 155.305 16.8672C155.321 16.5254 155.329 16.2731 155.329 16.1104C155.362 16.1104 155.386 16.1022 155.403 16.0859L155.476 16.0615C155.639 16.0615 155.777 16.1348 155.891 16.2812C156.005 16.4277 156.102 16.5661 156.184 16.6963C156.184 16.9242 156.176 17.3311 156.159 17.917C156.159 18.5029 156.159 19.1296 156.159 19.7969C156.159 20.4642 156.159 21.099 156.159 21.7012C156.176 22.2871 156.184 22.694 156.184 22.9219C156.2 23.1172 156.233 23.4264 156.281 23.8496C156.347 24.2565 156.428 24.6797 156.526 25.1191C156.623 25.5423 156.753 25.9329 156.916 26.291C157.095 26.6328 157.315 26.8281 157.575 26.877C158.259 26.877 158.829 26.6247 159.284 26.1201C159.756 25.6156 160.147 24.9808 160.456 24.2158C160.766 23.4508 161.01 22.6289 161.189 21.75C161.384 20.8548 161.547 20.0166 161.677 19.2354C161.807 18.4541 161.921 17.8031 162.019 17.2822C162.133 16.7451 162.263 16.4521 162.409 16.4033L162.995 16.5254L164.363 25.9736C164.46 26.0225 164.542 26.0957 164.607 26.1934C164.672 26.291 164.729 26.3968 164.778 26.5107C164.843 26.6247 164.883 26.7386 164.9 26.8525C164.932 26.9665 164.948 27.0479 164.948 27.0967C164.916 27.2106 164.818 27.3327 164.656 27.4629C164.493 27.5931 164.354 27.6663 164.24 27.6826H164.143C164.127 27.6826 164.11 27.6826 164.094 27.6826C164.061 27.6338 164.013 27.5605 163.948 27.4629C163.899 27.349 163.842 27.235 163.777 27.1211C163.712 27.0072 163.655 26.8932 163.606 26.7793C163.573 26.6491 163.549 26.5677 163.532 26.5352C163.484 26.3724 163.427 26.1201 163.362 25.7783C163.313 25.4365 163.264 25.0622 163.215 24.6553C163.166 24.2321 163.117 23.7926 163.069 23.3369C163.036 22.8649 162.995 22.4173 162.947 21.9941C162.914 21.5547 162.873 21.1722 162.824 20.8467C162.792 20.5049 162.751 20.2526 162.702 20.0898C162.621 20.4642 162.507 20.9118 162.361 21.4326C162.214 21.9372 162.027 22.4743 161.799 23.0439C161.587 23.6136 161.343 24.1751 161.067 24.7285C160.79 25.2656 160.473 25.7702 160.115 26.2422C159.773 26.6979 159.39 27.0885 158.967 27.4141C158.544 27.7233 158.08 27.9186 157.575 28ZM166.267 18.6738L167.707 24.6064H168C168.049 24.0856 168.139 23.5322 168.269 22.9463C168.415 22.3604 168.611 21.7826 168.855 21.2129C169.099 20.627 169.384 20.0654 169.709 19.5283C170.051 18.9912 170.434 18.5192 170.857 18.1123C171.28 17.7054 171.752 17.3799 172.273 17.1357C172.81 16.8916 173.396 16.7695 174.031 16.7695C174.031 17.1602 173.868 17.502 173.542 17.7949C173.233 18.0879 172.859 18.3727 172.419 18.6494C171.98 18.9261 171.524 19.2191 171.052 19.5283C170.596 19.8376 170.238 20.2119 169.978 20.6514C169.701 21.0908 169.473 21.6035 169.294 22.1895C169.131 22.7591 168.993 23.3532 168.879 23.9717C168.781 24.5739 168.708 25.1842 168.659 25.8027C168.611 26.4049 168.57 26.9502 168.537 27.4385C168.44 27.585 168.334 27.7233 168.22 27.8535C168.122 27.9674 167.992 28.0244 167.829 28.0244C167.764 28.0244 167.683 28.0081 167.585 27.9756C167.488 27.9268 167.422 27.8372 167.39 27.707L165.632 18.6738H166.267ZM174.592 25.4609C174.592 24.9889 174.641 24.403 174.739 23.7031C174.852 23.0033 175.007 22.279 175.202 21.5303C175.414 20.7653 175.674 20.0003 175.984 19.2354C176.309 18.4704 176.675 17.7868 177.082 17.1846C177.489 16.5661 177.953 16.0697 178.474 15.6953C178.995 15.321 179.564 15.1338 180.183 15.1338C180.183 15.3617 180.085 15.5895 179.89 15.8174C179.711 16.029 179.499 16.2406 179.255 16.4521C179.027 16.6475 178.791 16.8428 178.547 17.0381C178.303 17.2171 178.132 17.388 178.034 17.5508C177.644 18.0553 177.294 18.6169 176.985 19.2354C176.675 19.8376 176.407 20.4642 176.179 21.1152C175.951 21.75 175.772 22.4092 175.642 23.0928C175.512 23.7601 175.447 24.4111 175.447 25.0459C175.447 25.1436 175.463 25.2982 175.495 25.5098C175.528 25.7051 175.569 25.9085 175.617 26.1201C175.683 26.3317 175.764 26.5189 175.862 26.6816C175.959 26.8281 176.065 26.9014 176.179 26.9014H176.252C176.268 26.9014 176.285 26.8932 176.301 26.877C176.74 26.3887 177.107 25.8597 177.4 25.29C177.693 24.7204 177.945 24.1344 178.156 23.5322C178.368 22.9137 178.547 22.2871 178.694 21.6523C178.84 21.0176 178.987 20.391 179.133 19.7725C179.182 19.5934 179.198 19.3249 179.182 18.9668C179.182 18.6087 179.198 18.2588 179.231 17.917C179.28 17.5752 179.369 17.2822 179.499 17.0381C179.629 16.7777 179.865 16.6475 180.207 16.6475C180.272 16.6475 180.346 16.6556 180.427 16.6719C180.525 16.6719 180.573 16.68 180.573 16.6963C181.176 17.9495 181.688 19.0156 182.112 19.8945C182.535 20.7572 182.893 21.4733 183.186 22.043C183.479 22.6126 183.715 23.0602 183.894 23.3857C184.073 23.7113 184.203 23.9635 184.284 24.1426C184.382 24.3053 184.447 24.4193 184.48 24.4844C184.512 24.5332 184.529 24.5739 184.529 24.6064C184.545 24.6715 184.561 24.7936 184.577 24.9727C184.594 25.1354 184.602 25.3145 184.602 25.5098C184.618 25.6888 184.626 25.8678 184.626 26.0469C184.642 26.2096 184.651 26.3154 184.651 26.3643C184.488 26.3643 184.309 26.3561 184.114 26.3398C183.918 26.3236 183.78 26.2178 183.698 26.0225L180.573 19.5283L180.305 19.2354C180.256 19.4144 180.158 19.7318 180.012 20.1875C179.882 20.6432 179.735 21.1315 179.573 21.6523C179.426 22.1569 179.288 22.637 179.157 23.0928C179.027 23.5485 178.938 23.8659 178.889 24.0449C178.791 24.2891 178.661 24.6309 178.498 25.0703C178.352 25.5098 178.165 25.9492 177.937 26.3887C177.709 26.8281 177.448 27.2106 177.156 27.5361C176.863 27.8617 176.537 28.0244 176.179 28.0244C175.886 28.0244 175.642 27.9349 175.447 27.7559C175.251 27.5605 175.088 27.3245 174.958 27.0479C174.828 26.7712 174.73 26.4863 174.665 26.1934C174.616 25.9004 174.592 25.6562 174.592 25.4609ZM185.578 27.4385C185.562 27.0153 185.521 26.3643 185.456 25.4854C185.391 24.5902 185.318 23.5892 185.237 22.4824C185.171 21.3594 185.098 20.1875 185.017 18.9668C184.952 17.7298 184.878 16.5498 184.797 15.4268C184.732 14.3037 184.659 13.3027 184.577 12.4238C184.512 11.5286 184.472 10.8695 184.455 10.4463V10.1289C184.455 9.75456 184.642 9.56738 185.017 9.56738C185.049 9.56738 185.098 9.57552 185.163 9.5918C185.228 9.5918 185.277 9.5918 185.31 9.5918C185.407 11.0078 185.497 12.3669 185.578 13.6689C185.66 14.971 185.741 16.265 185.823 17.5508C185.904 18.8366 185.993 20.1305 186.091 21.4326C186.189 22.7184 186.303 24.0612 186.433 25.4609C186.612 25.64 186.71 25.8516 186.726 26.0957C186.742 26.3236 186.75 26.5596 186.75 26.8037C186.75 26.9176 186.742 27.0479 186.726 27.1943C186.726 27.3245 186.701 27.4548 186.653 27.585C186.604 27.6989 186.522 27.8047 186.408 27.9023C186.311 27.9837 186.181 28.0244 186.018 28.0244C185.871 28.0244 185.766 27.9674 185.7 27.8535C185.652 27.7396 185.611 27.6012 185.578 27.4385Z" fill="#9A9A9A"/>
</svg>
