<svg xmlns="http://www.w3.org/2000/svg" width="15" height="15" fill="none" viewBox="0 0 15 15"><path fill="#22262a" d="M7.5 4.922A2.58 2.58 0 0 0 4.922 7.5 2.563 2.563 0 0 0 7.5 10.078 2.58 2.58 0 0 0 10.078 7.5 2.6 2.6 0 0 0 7.5 4.922m0 3.75c-.674 0-1.172-.498-1.172-1.172 0-.645.498-1.172 1.172-1.172.645 0 1.172.527 1.172 1.172 0 .674-.527 1.172-1.172 1.172m7.031-1.875h-1.465a5.66 5.66 0 0 0-4.863-4.863V.469A.504.504 0 0 0 7.734 0h-.468a.48.48 0 0 0-.47.469v1.465c-2.548.322-4.57 2.343-4.892 4.863H.47A.48.48 0 0 0 0 7.266v.468c0 .264.205.47.469.47h1.435a5.66 5.66 0 0 0 4.893 4.892v1.435c0 .264.205.469.469.469h.468a.48.48 0 0 0 .47-.469v-1.435c2.519-.323 4.54-2.344 4.862-4.893h1.465A.48.48 0 0 0 15 7.734v-.468a.504.504 0 0 0-.469-.47M7.5 11.719A4.2 4.2 0 0 1 3.281 7.5 4.22 4.22 0 0 1 7.5 3.281c2.314 0 4.219 1.905 4.219 4.219A4.22 4.22 0 0 1 7.5 11.719"/></svg>