<svg xmlns="http://www.w3.org/2000/svg" width="163" height="21" fill="none" viewBox="0 0 163 21"><path fill="#22262a" d="m18.396.28-6.804 13.16v6.496H6.804V13.44L0 .28h5.432L9.24 8.512 13.02.28zm11.225 19.852q-2.771 0-5.096-1.288a9.8 9.8 0 0 1-3.668-3.584q-1.344-2.324-1.344-5.208t1.344-5.18a9.8 9.8 0 0 1 3.668-3.584Q26.85 0 29.621 0t5.068 1.288a9.33 9.33 0 0 1 3.64 3.584q1.344 2.295 1.344 5.18T38.33 15.26a9.6 9.6 0 0 1-3.64 3.584q-2.296 1.288-5.068 1.288m0-4.368q2.352 0 3.752-1.568 1.428-1.568 1.428-4.144 0-2.604-1.428-4.144-1.4-1.568-3.752-1.568-2.38 0-3.808 1.54-1.4 1.54-1.4 4.172 0 2.604 1.4 4.172 1.429 1.54 3.808 1.54M47.041.28v11.76q0 1.764.868 2.716.867.952 2.548.952 1.68 0 2.576-.952t.896-2.716V.28h4.788v11.732q0 2.633-1.12 4.452a7.15 7.15 0 0 1-3.024 2.744q-1.875.924-4.2.924t-4.172-.896q-1.82-.924-2.884-2.744-1.065-1.848-1.064-4.48V.28zm25.062 19.656-4.088-7.42h-1.148v7.42H62.08V.28h8.036q2.324 0 3.948.812 1.652.812 2.464 2.24.812 1.4.812 3.136 0 1.96-1.12 3.5-1.091 1.54-3.248 2.184l4.536 7.784zM66.867 9.128h2.968q1.315 0 1.96-.644.672-.644.672-1.82 0-1.12-.672-1.764-.645-.644-1.96-.644h-2.968zm24.2 7.112h6.271v3.696h-11.06V.28h4.788zm17.851 3.892q-2.772 0-5.096-1.288a9.8 9.8 0 0 1-3.668-3.584q-1.344-2.324-1.344-5.208t1.344-5.18a9.8 9.8 0 0 1 3.668-3.584Q106.146 0 108.918 0t5.068 1.288a9.33 9.33 0 0 1 3.64 3.584q1.344 2.295 1.344 5.18t-1.344 5.208a9.6 9.6 0 0 1-3.64 3.584q-2.296 1.288-5.068 1.288m0-4.368q2.352 0 3.752-1.568 1.428-1.568 1.428-4.144 0-2.604-1.428-4.144-1.4-1.568-3.752-1.568-2.38 0-3.808 1.54-1.4 1.54-1.4 4.172 0 2.604 1.4 4.172 1.428 1.54 3.808 1.54m25.764-9.268a3.5 3.5 0 0 0-1.54-1.484q-.98-.532-2.324-.532-2.325 0-3.724 1.54-1.4 1.512-1.4 4.06 0 2.716 1.456 4.256 1.483 1.512 4.06 1.512 1.764 0 2.968-.896 1.231-.896 1.792-2.576h-6.076V8.848h10.416V13.3q-.533 1.792-1.82 3.332-1.26 1.54-3.22 2.492t-4.424.952q-2.913 0-5.208-1.26a9.3 9.3 0 0 1-3.556-3.556q-1.26-2.268-1.26-5.18t1.26-5.18a9.04 9.04 0 0 1 3.556-3.556q2.268-1.288 5.18-1.288 3.528 0 5.936 1.708 2.436 1.708 3.22 4.732zm17.576 13.636q-2.772 0-5.096-1.288a9.8 9.8 0 0 1-3.668-3.584q-1.344-2.324-1.344-5.208t1.344-5.18a9.8 9.8 0 0 1 3.668-3.584Q149.486 0 152.258 0t5.068 1.288a9.33 9.33 0 0 1 3.64 3.584q1.344 2.295 1.344 5.18t-1.344 5.208a9.6 9.6 0 0 1-3.64 3.584q-2.296 1.288-5.068 1.288m0-4.368q2.352 0 3.752-1.568 1.428-1.568 1.428-4.144 0-2.604-1.428-4.144-1.4-1.568-3.752-1.568-2.38 0-3.808 1.54-1.4 1.54-1.4 4.172 0 2.604 1.4 4.172 1.428 1.54 3.808 1.54"/></svg>